<?xml version="1.0" encoding="UTF-8"?>
<!DOCTYPE svg PUBLIC "-//W3C//DTD SVG 1.1//EN" "http://www.w3.org/Graphics/SVG/1.1/DTD/svg11.dtd">
<svg xmlns="http://www.w3.org/2000/svg" version="1.1" width="1280px" height="1280px" style="shape-rendering:geometricPrecision; text-rendering:geometricPrecision; image-rendering:optimizeQuality; fill-rule:evenodd; clip-rule:evenodd" xmlns:xlink="http://www.w3.org/1999/xlink">
<g><path style="opacity:1" fill="#fec45a" d="M 866.5,606.5 C 865.5,607.167 864.5,607.833 863.5,608.5C 862.775,614.405 863.775,619.905 866.5,625C 866.167,625.5 865.833,626 865.5,626.5C 864.742,625.189 863.742,624.689 862.5,625C 863.451,628.057 863.784,631.223 863.5,634.5C 865.288,634.785 866.955,634.452 868.5,633.5C 867.674,632.549 867.508,631.549 868,630.5C 869.319,632.25 869.819,634.25 869.5,636.5C 841.833,636.5 814.167,636.5 786.5,636.5C 781.661,624.507 774.995,613.507 766.5,603.5C 757.222,595.52 747.222,588.853 736.5,583.5C 730.165,578.997 723.498,574.997 716.5,571.5C 717.791,554.129 718.791,536.796 719.5,519.5C 725.459,518.242 726.959,514.908 724,509.5C 722.833,508.333 721.667,507.167 720.5,506C 722.823,504.796 725.323,503.962 728,503.5C 729.319,502.681 730.485,501.681 731.5,500.5C 735.021,490.705 731.687,484.872 721.5,483C 716.215,481.974 710.882,481.307 705.5,481C 714.203,474.966 720.703,467.133 725,457.5C 728.671,448.897 726.504,442.564 718.5,438.5C 717.207,437.842 715.707,437.508 714,437.5C 711.456,437.336 709.29,438.003 707.5,439.5C 701.378,441.933 695.711,445.266 690.5,449.5C 689.624,449.631 688.957,449.298 688.5,448.5C 689.766,443.866 690.933,439.2 692,434.5C 692.906,437.121 693.406,436.954 693.5,434C 693.322,429.045 691.322,425.212 687.5,422.5C 682.589,416.666 676.255,414.499 668.5,416C 659.446,418.692 651.446,423.192 644.5,429.5C 641.167,432.167 638.167,435.167 635.5,438.5C 629.883,443.715 624.717,449.381 620,455.5C 614.731,450.755 608.564,449.255 601.5,451C 596.456,454.905 593.289,460.072 592,466.5C 589.59,476.035 587.924,485.701 587,495.5C 581.044,497.961 576.544,501.961 573.5,507.5C 571.254,509.649 569.754,512.316 569,515.5C 566.722,524.036 567.222,532.369 570.5,540.5C 570.5,541.5 570.5,542.5 570.5,543.5C 567.43,543.368 564.43,543.701 561.5,544.5C 555.222,546.37 548.889,548.037 542.5,549.5C 542.5,550.5 542.5,551.5 542.5,552.5C 540.473,552.338 538.473,552.505 536.5,553C 508.681,566.825 489.181,588.325 478,617.5C 469.479,646.557 466.479,676.224 469,706.5C 471.387,736.761 476.72,766.428 485,795.5C 488.838,808.189 493.338,820.522 498.5,832.5C 501.708,841.627 505.208,850.627 509,859.5C 525.278,889.058 540.278,919.391 554,950.5C 556.696,954.68 559.53,958.68 562.5,962.5C 571.262,978.156 582.929,991.323 597.5,1002C 611.651,1011.38 627.317,1016.38 644.5,1017C 706.316,1019.67 764.983,1007.83 820.5,981.5C 821.167,981.833 821.833,982.167 822.5,982.5C 823.833,986.5 826.5,989.167 830.5,990.5C 836.833,995.833 843.167,1001.17 849.5,1006.5C 848.04,1008.46 846.373,1010.3 844.5,1012C 810.55,1033.1 773.55,1046.77 733.5,1053C 653.676,1069.23 583.343,1050.9 522.5,998C 475.927,953.908 442.76,901.408 423,840.5C 422.617,839.944 422.117,839.611 421.5,839.5C 421.5,838.5 421.5,837.5 421.5,836.5C 394.097,754.561 381.264,670.227 383,583.5C 384.719,546.653 392.385,511.32 406,477.5C 419.921,443.513 440.421,414.013 467.5,389C 468.448,388.517 469.448,388.351 470.5,388.5C 472.509,384.973 475.176,381.806 478.5,379C 489.145,370.367 499.812,362.867 510.5,356.5C 544.082,347.346 578.415,342.512 613.5,342C 662.721,338.961 705.721,353.628 742.5,386C 769.72,411.647 792.22,440.814 810,473.5C 832.367,515.267 850.033,558.934 863,604.5C 863.71,605.973 864.876,606.64 866.5,606.5 Z"/></g>
<g><path style="opacity:1" fill="#f39947" d="M 510.5,356.5 C 499.812,362.867 489.145,370.367 478.5,379C 475.176,381.806 472.509,384.973 470.5,388.5C 469.448,388.351 468.448,388.517 467.5,389C 440.421,414.013 419.921,443.513 406,477.5C 392.385,511.32 384.719,546.653 383,583.5C 381.264,670.227 394.097,754.561 421.5,836.5C 410.121,841.706 400.288,849.039 392,858.5C 391.51,856.455 391.677,854.455 392.5,852.5C 394.887,847.399 396.887,842.066 398.5,836.5C 399.887,834.123 400.721,831.457 401,828.5C 401.831,821.858 402.331,815.191 402.5,808.5C 402.694,801.191 401.694,794.191 399.5,787.5C 398.549,786.081 398.216,784.415 398.5,782.5C 397.27,776.103 395.77,769.77 394,763.5C 392.541,761.568 391.375,759.568 390.5,757.5C 387.547,751.386 384.88,744.886 382.5,738C 374.499,725.134 369.833,710.967 368.5,695.5C 367.531,688.86 367.531,682.194 368.5,675.5C 367.167,675.5 365.833,675.5 364.5,675.5C 364.043,678.406 363.043,681.072 361.5,683.5C 357.873,689.325 354.373,695.325 351,701.5C 350.462,704.345 349.462,707.012 348,709.5C 345.954,725.675 346.121,741.675 348.5,757.5C 349.766,772.723 351.433,787.89 353.5,803C 353.333,808.167 353.167,813.333 353,818.5C 352.768,817.263 352.268,816.263 351.5,815.5C 339.048,752.047 331.382,687.881 328.5,623C 327.806,573.989 336.64,526.823 355,481.5C 381.973,424.579 425.139,385.413 484.5,364C 493.012,360.873 501.679,358.373 510.5,356.5 Z"/></g>
<g><path style="opacity:1" fill="#6d3843" d="M 687.5,422.5 C 690.371,432.482 689.704,442.315 685.5,452C 687.634,453.185 689.301,452.352 690.5,449.5C 695.711,445.266 701.378,441.933 707.5,439.5C 711.135,438.886 714.802,438.552 718.5,438.5C 726.504,442.564 728.671,448.897 725,457.5C 720.703,467.133 714.203,474.966 705.5,481C 710.882,481.307 716.215,481.974 721.5,483C 731.687,484.872 735.021,490.705 731.5,500.5C 730.485,501.681 729.319,502.681 728,503.5C 725.323,503.962 722.823,504.796 720.5,506C 721.667,507.167 722.833,508.333 724,509.5C 726.959,514.908 725.459,518.242 719.5,519.5C 713.708,520.903 708.042,520.403 702.5,518C 694.971,514.623 687.637,511.29 680.5,508C 683.376,510.175 685.876,512.675 688,515.5C 689.324,521.523 686.824,524.689 680.5,525C 656.944,527.089 634.944,522.255 614.5,510.5C 613.509,514.445 613.176,518.445 613.5,522.5C 612.834,517.983 612.167,513.317 611.5,508.5C 610.167,507.833 608.833,507.167 607.5,506.5C 603.724,510.721 599.058,513.388 593.5,514.5C 588.199,513.934 584.366,511.267 582,506.5C 581.29,507.973 580.124,508.64 578.5,508.5C 578.5,507.5 578.5,506.5 578.5,505.5C 576.486,505.392 574.82,506.058 573.5,507.5C 576.544,501.961 581.044,497.961 587,495.5C 587.924,485.701 589.59,476.035 592,466.5C 593.289,460.072 596.456,454.905 601.5,451C 608.564,449.255 614.731,450.755 620,455.5C 624.717,449.381 629.883,443.715 635.5,438.5C 639.5,436.5 642.5,433.5 644.5,429.5C 651.446,423.192 659.446,418.692 668.5,416C 676.255,414.499 682.589,416.666 687.5,422.5 Z"/></g>
<g><path style="opacity:1" fill="#edb661" d="M 687.5,422.5 C 691.322,425.212 693.322,429.045 693.5,434C 693.406,436.954 692.906,437.121 692,434.5C 690.933,439.2 689.766,443.866 688.5,448.5C 688.957,449.298 689.624,449.631 690.5,449.5C 689.301,452.352 687.634,453.185 685.5,452C 689.704,442.315 690.371,432.482 687.5,422.5 Z"/></g>
<g><path style="opacity:1" fill="#804634" d="M 644.5,429.5 C 642.5,433.5 639.5,436.5 635.5,438.5C 638.167,435.167 641.167,432.167 644.5,429.5 Z"/></g>
<g><path style="opacity:1" fill="#844c2e" d="M 718.5,438.5 C 714.802,438.552 711.135,438.886 707.5,439.5C 709.29,438.003 711.456,437.336 714,437.5C 715.707,437.508 717.207,437.842 718.5,438.5 Z"/></g>
<g><path style="opacity:0.752" fill="#9d2b44" d="M 1087.5,472.5 C 1032.83,472.5 978.167,472.5 923.5,472.5C 976.997,471.501 1030.66,471.168 1084.5,471.5C 1084.5,468.833 1084.5,466.167 1084.5,463.5C 1029.17,463.333 973.832,463.5 918.5,464C 915.027,464.807 912.86,466.973 912,470.5C 911.601,470.272 911.435,469.938 911.5,469.5C 912.356,465.146 915.023,462.646 919.5,462C 974.833,461.333 1030.17,461.333 1085.5,462C 1086.2,465.496 1086.87,468.996 1087.5,472.5 Z"/></g>
<g><path style="opacity:1" fill="#ad2f47" d="M 923.5,472.5 C 922.167,481.833 922.167,491.167 923.5,500.5C 977.736,501.171 1032.07,501.837 1086.5,502.5C 1086.5,505.5 1086.5,508.5 1086.5,511.5C 1075.5,511.5 1064.5,511.5 1053.5,511.5C 1009.34,510.501 965.003,510.168 920.5,510.5C 917.833,510.5 915.167,510.5 912.5,510.5C 912.918,509.778 913.584,509.278 914.5,509C 912.951,507.786 911.785,506.286 911,504.5C 910.174,492.659 910.341,480.993 911.5,469.5C 911.435,469.938 911.601,470.272 912,470.5C 912.86,466.973 915.027,464.807 918.5,464C 973.832,463.5 1029.17,463.333 1084.5,463.5C 1084.5,466.167 1084.5,468.833 1084.5,471.5C 1030.66,471.168 976.997,471.501 923.5,472.5 Z"/></g>
<g><path style="opacity:1" fill="#e1e6fe" d="M 925.5,473.5 C 961.833,473.5 998.167,473.5 1034.5,473.5C 1033.54,482.225 1033.21,490.892 1033.5,499.5C 997.167,499.5 960.833,499.5 924.5,499.5C 924.197,490.749 924.53,482.082 925.5,473.5 Z"/></g>
<g><path style="opacity:1" fill="#ecf0fb" d="M 1034.5,473.5 C 1052.5,473.5 1070.5,473.5 1088.5,473.5C 1089.66,480.655 1089.82,487.988 1089,495.5C 1088.95,497.744 1088.12,499.411 1086.5,500.5C 1085.83,500.5 1085.17,500.5 1084.5,500.5C 1067.67,499.503 1050.67,499.17 1033.5,499.5C 1033.21,490.892 1033.54,482.225 1034.5,473.5 Z"/></g>
<g><path style="opacity:1" fill="#ca8ba2" d="M 923.5,472.5 C 978.167,472.5 1032.83,472.5 1087.5,472.5C 1088.17,472.5 1088.5,472.833 1088.5,473.5C 1070.5,473.5 1052.5,473.5 1034.5,473.5C 998.167,473.5 961.833,473.5 925.5,473.5C 923.529,482.105 922.862,491.105 923.5,500.5C 922.167,491.167 922.167,481.833 923.5,472.5 Z"/></g>
<g><path style="opacity:1" fill="#f6e0f7" d="M 925.5,473.5 C 924.53,482.082 924.197,490.749 924.5,499.5C 960.833,499.5 997.167,499.5 1033.5,499.5C 1050.67,499.17 1067.67,499.503 1084.5,500.5C 1030.83,500.5 977.167,500.5 923.5,500.5C 922.862,491.105 923.529,482.105 925.5,473.5 Z"/></g>
<g><path style="opacity:1" fill="#936b84" d="M 923.5,500.5 C 977.167,500.5 1030.83,500.5 1084.5,500.5C 1085.17,500.5 1085.83,500.5 1086.5,500.5C 1086.5,501.167 1086.5,501.833 1086.5,502.5C 1032.07,501.837 977.736,501.171 923.5,500.5 Z"/></g>
<g><path style="opacity:1" fill="#552532" d="M 613.5,522.5 C 613.666,528.509 613.499,534.509 613,540.5C 606.819,535.763 601.819,536.763 598,543.5C 597.851,555.855 603.351,564.855 614.5,570.5C 615.827,576.656 618.827,581.823 623.5,586C 630.115,591.118 637.115,595.618 644.5,599.5C 629.76,601.873 616.427,598.373 604.5,589C 598.637,584.302 593.303,579.135 588.5,573.5C 582.985,565.8 577.985,557.8 573.5,549.5C 572.422,546.598 571.756,543.598 571.5,540.5C 570.245,535.519 570.245,530.519 571.5,525.5C 571.065,523.26 570.398,521.094 569.5,519C 571.518,515.441 572.851,511.608 573.5,507.5C 574.82,506.058 576.486,505.392 578.5,505.5C 578.5,506.5 578.5,507.5 578.5,508.5C 580.124,508.64 581.29,507.973 582,506.5C 584.366,511.267 588.199,513.934 593.5,514.5C 599.058,513.388 603.724,510.721 607.5,506.5C 608.833,507.167 610.167,507.833 611.5,508.5C 612.167,513.317 612.834,517.983 613.5,522.5 Z"/></g>
<g><path style="opacity:1" fill="#e4736c" d="M 920.5,510.5 C 965.003,510.168 1009.34,510.501 1053.5,511.5C 1051.9,511.232 1050.57,511.566 1049.5,512.5C 1006.4,511.839 963.402,511.172 920.5,510.5 Z"/></g>
<g><path style="opacity:1" fill="#fcc35a" d="M 912.5,510.5 C 915.167,510.5 917.833,510.5 920.5,510.5C 963.402,511.172 1006.4,511.839 1049.5,512.5C 1049.45,514.903 1049.78,517.236 1050.5,519.5C 1049.5,519.5 1048.5,519.5 1047.5,519.5C 993.167,519.5 938.833,519.5 884.5,519.5C 884.173,529.348 884.506,539.014 885.5,548.5C 886.167,548.5 886.5,548.833 886.5,549.5C 939.997,550.499 993.664,550.832 1047.5,550.5C 1047.72,553.279 1047.39,555.946 1046.5,558.5C 997.997,558.168 949.664,558.501 901.5,559.5C 894.492,559.666 887.492,559.5 880.5,559C 877.417,558.214 875.251,556.381 874,553.5C 873.333,541.5 873.333,529.5 874,517.5C 874.739,514.427 876.572,512.26 879.5,511C 890.495,510.5 901.495,510.333 912.5,510.5 Z"/></g>
<g><path style="opacity:1" fill="#f4b7aa" d="M 719.5,519.5 C 718.791,536.796 717.791,554.129 716.5,571.5C 713.619,575.42 711.286,579.754 709.5,584.5C 702.201,594.028 692.535,599.362 680.5,600.5C 670.828,600.334 661.161,600.5 651.5,601C 660.938,605.385 670.604,609.218 680.5,612.5C 680.5,613.833 680.5,615.167 680.5,616.5C 676.986,627.815 669.319,632.315 657.5,630C 649.306,626.118 645.306,619.618 645.5,610.5C 645.5,609.833 645.167,609.5 644.5,609.5C 645.782,606.064 645.782,602.731 644.5,599.5C 637.115,595.618 630.115,591.118 623.5,586C 618.827,581.823 615.827,576.656 614.5,570.5C 603.351,564.855 597.851,555.855 598,543.5C 601.819,536.763 606.819,535.763 613,540.5C 613.499,534.509 613.666,528.509 613.5,522.5C 613.176,518.445 613.509,514.445 614.5,510.5C 634.944,522.255 656.944,527.089 680.5,525C 686.824,524.689 689.324,521.523 688,515.5C 685.876,512.675 683.376,510.175 680.5,508C 687.637,511.29 694.971,514.623 702.5,518C 708.042,520.403 713.708,520.903 719.5,519.5 Z"/></g>
<g><path style="opacity:1" fill="#f4c767" d="M 1047.5,519.5 C 993.833,520.167 940.167,520.833 886.5,521.5C 885.507,530.318 885.173,539.318 885.5,548.5C 884.506,539.014 884.173,529.348 884.5,519.5C 938.833,519.5 993.167,519.5 1047.5,519.5 Z"/></g>
<g><path style="opacity:1" fill="#f2d8b0" d="M 1047.5,519.5 C 1048.5,519.5 1049.5,519.5 1050.5,519.5C 1050.5,520.167 1050.5,520.833 1050.5,521.5C 1034.5,521.5 1018.5,521.5 1002.5,521.5C 965.167,521.5 927.833,521.5 890.5,521.5C 889.167,521.5 887.833,521.5 886.5,521.5C 940.167,520.833 993.833,520.167 1047.5,519.5 Z"/></g>
<g><path style="opacity:1" fill="#64342e" d="M 573.5,507.5 C 572.851,511.608 571.518,515.441 569.5,519C 570.398,521.094 571.065,523.26 571.5,525.5C 570.245,530.519 570.245,535.519 571.5,540.5C 571.167,540.5 570.833,540.5 570.5,540.5C 567.222,532.369 566.722,524.036 569,515.5C 569.754,512.316 571.254,509.649 573.5,507.5 Z"/></g>
<g><path style="opacity:1" fill="#eeedf3" d="M 886.5,521.5 C 887.833,521.5 889.167,521.5 890.5,521.5C 890.666,528.508 890.5,535.508 890,542.5C 889.831,535.809 889.331,529.142 888.5,522.5C 887.502,530.807 887.169,539.14 887.5,547.5C 926.5,547.5 965.5,547.5 1004.5,547.5C 1003.93,538.78 1003.26,530.113 1002.5,521.5C 1018.5,521.5 1034.5,521.5 1050.5,521.5C 1051.66,529.99 1051.82,538.657 1051,547.5C 1050.72,548.416 1050.22,549.082 1049.5,549.5C 995.167,549.5 940.833,549.5 886.5,549.5C 886.5,548.833 886.167,548.5 885.5,548.5C 885.173,539.318 885.507,530.318 886.5,521.5 Z"/></g>
<g><path style="opacity:1" fill="#e1e6fe" d="M 890.5,521.5 C 927.833,521.5 965.167,521.5 1002.5,521.5C 1003.26,530.113 1003.93,538.78 1004.5,547.5C 965.5,547.5 926.5,547.5 887.5,547.5C 887.169,539.14 887.502,530.807 888.5,522.5C 889.331,529.142 889.831,535.809 890,542.5C 890.5,535.508 890.666,528.508 890.5,521.5 Z"/></g>
<g><path style="opacity:1" fill="#231c19" d="M 654.5,534.5 C 656.39,534.297 657.89,534.963 659,536.5C 659.667,540.5 659.667,544.5 659,548.5C 657,551.167 655,551.167 653,548.5C 651.966,543.543 652.466,538.876 654.5,534.5 Z"/></g>
<g><path style="opacity:1" fill="#26211d" d="M 689.5,534.5 C 690.822,534.33 691.989,534.663 693,535.5C 694.932,540.194 694.932,544.861 693,549.5C 690.415,550.885 688.415,550.218 687,547.5C 685.842,542.693 686.676,538.36 689.5,534.5 Z"/></g>
<g><path style="opacity:1" fill="#f39947" d="M 561.5,544.5 C 559.513,547.859 559.013,551.525 560,555.5C 560.414,555.957 560.914,556.291 561.5,556.5C 562.164,560.654 563.331,564.654 565,568.5C 565.624,570.754 566.957,572.421 569,573.5C 576.853,593.742 572.687,610.742 556.5,624.5C 555.719,625.729 555.219,627.062 555,628.5C 552.126,629.532 550.626,631.532 550.5,634.5C 549.448,634.351 548.448,634.517 547.5,635C 535.984,646.017 524.317,656.85 512.5,667.5C 509.25,672.322 505.75,676.989 502,681.5C 501.51,682.793 501.343,684.127 501.5,685.5C 500.5,685.5 499.5,685.5 498.5,685.5C 496.389,690.327 494.556,695.327 493,700.5C 490.89,715.958 489.39,731.458 488.5,747C 488.571,761.875 489.404,776.709 491,791.5C 491.428,795.585 492.595,799.418 494.5,803C 494.043,803.414 493.709,803.914 493.5,804.5C 494.612,813.955 496.278,823.288 498.5,832.5C 493.338,820.522 488.838,808.189 485,795.5C 476.72,766.428 471.387,736.761 469,706.5C 466.479,676.224 469.479,646.557 478,617.5C 489.181,588.325 508.681,566.825 536.5,553C 538.473,552.505 540.473,552.338 542.5,552.5C 542.5,551.5 542.5,550.5 542.5,549.5C 548.889,548.037 555.222,546.37 561.5,544.5 Z"/></g>
<g><path style="opacity:1" fill="#f6c56a" d="M 886.5,549.5 C 940.833,549.5 995.167,549.5 1049.5,549.5C 1049.26,552.609 1049.6,555.609 1050.5,558.5C 1049.5,558.5 1048.5,558.5 1047.5,558.5C 1047.17,558.5 1046.83,558.5 1046.5,558.5C 1047.39,555.946 1047.72,553.279 1047.5,550.5C 993.664,550.832 939.997,550.499 886.5,549.5 Z"/></g>
<g><path style="opacity:1" fill="#e68e9d" d="M 607.5,545.5 C 613.672,546.5 617.505,550.167 619,556.5C 619.497,559.146 619.664,561.813 619.5,564.5C 607.487,563.455 603.487,557.122 607.5,545.5 Z"/></g>
<g><path style="opacity:1" fill="#c2a471" d="M 901.5,559.5 C 949.664,558.501 997.997,558.168 1046.5,558.5C 1046.83,558.5 1047.17,558.5 1047.5,558.5C 999.961,559.176 952.294,559.843 904.5,560.5C 903.791,559.596 902.791,559.263 901.5,559.5 Z"/></g>
<g><path style="opacity:1" fill="#e07851" d="M 573.5,549.5 C 577.985,557.8 582.985,565.8 588.5,573.5C 584.933,571.443 581.766,568.777 579,565.5C 578.316,564.216 578.483,563.049 579.5,562C 577.874,562.195 576.207,562.195 574.5,562C 576.155,560.556 576.822,558.722 576.5,556.5C 575.448,556.649 574.448,556.483 573.5,556C 574.333,553.919 574.333,551.752 573.5,549.5 Z"/></g>
<g><path style="opacity:1" fill="#8184a5" d="M 1076.5,567.5 C 1076.83,568.167 1077.17,568.833 1077.5,569.5C 1061.83,569.5 1046.17,569.5 1030.5,569.5C 991.167,569.5 951.833,569.5 912.5,569.5C 967.069,568.829 1021.74,568.163 1076.5,567.5 Z"/></g>
<g><path style="opacity:1" fill="#e0e5fd" d="M 912.5,569.5 C 951.833,569.5 991.167,569.5 1030.5,569.5C 1030.2,578.221 1030.53,586.888 1031.5,595.5C 1047.2,596.802 1062.87,596.802 1078.5,595.5C 1078.17,596.5 1077.5,597.167 1076.5,597.5C 1021.83,597.5 967.167,597.5 912.5,597.5C 912.5,588.167 912.5,578.833 912.5,569.5 Z"/></g>
<g><path style="opacity:1" fill="#dd7883" d="M 647.5,560.5 C 653.035,564.435 659.035,567.602 665.5,570C 670.066,571.309 674.733,571.809 679.5,571.5C 679.5,572.5 679.5,573.5 679.5,574.5C 668.92,574.251 659.253,571.085 650.5,565C 648.859,563.871 647.859,562.371 647.5,560.5 Z"/></g>
<g><path style="opacity:1" fill="#ecf0fb" d="M 1030.5,569.5 C 1046.17,569.5 1061.83,569.5 1077.5,569.5C 1078.49,577.984 1078.83,586.651 1078.5,595.5C 1062.87,596.802 1047.2,596.802 1031.5,595.5C 1030.53,586.888 1030.2,578.221 1030.5,569.5 Z"/></g>
<g><path style="opacity:1" fill="#f07d4b" d="M 716.5,571.5 C 723.498,574.997 730.165,578.997 736.5,583.5C 737.815,599.382 741.481,614.715 747.5,629.5C 749.965,630.132 751.631,631.632 752.5,634C 754.134,634.494 755.801,634.66 757.5,634.5C 757.5,636.167 757.5,637.833 757.5,639.5C 759.38,639.229 760.713,639.896 761.5,641.5C 760.5,641.833 759.833,642.5 759.5,643.5C 750.259,645.741 744.259,651.408 741.5,660.5C 740.21,659.942 739.377,658.942 739,657.5C 737.35,652.045 735.517,646.711 733.5,641.5C 733.657,640.127 733.49,638.793 733,637.5C 731.434,634.248 729.601,631.248 727.5,628.5C 724.153,623.17 720.486,618.17 716.5,613.5C 709.484,611.698 702.484,610.032 695.5,608.5C 692.411,607.215 689.078,606.549 685.5,606.5C 684.081,605.549 682.415,605.216 680.5,605.5C 680.5,603.833 680.5,602.167 680.5,600.5C 692.535,599.362 702.201,594.028 709.5,584.5C 711.286,579.754 713.619,575.42 716.5,571.5 Z"/></g>
<g><path style="opacity:1" fill="#f39947" d="M 736.5,583.5 C 747.222,588.853 757.222,595.52 766.5,603.5C 774.995,613.507 781.661,624.507 786.5,636.5C 786.833,637.167 787.167,637.833 787.5,638.5C 787.5,639.5 787.5,640.5 787.5,641.5C 778.833,641.5 770.167,641.5 761.5,641.5C 760.713,639.896 759.38,639.229 757.5,639.5C 757.5,637.833 757.5,636.167 757.5,634.5C 755.801,634.66 754.134,634.494 752.5,634C 751.631,631.632 749.965,630.132 747.5,629.5C 741.481,614.715 737.815,599.382 736.5,583.5 Z"/></g>
<g><path style="opacity:1" fill="#606388" d="M 1047.5,558.5 C 1048.5,558.5 1049.5,558.5 1050.5,558.5C 1058.84,558.334 1067.17,558.5 1075.5,559C 1076.44,561.719 1076.78,564.552 1076.5,567.5C 1021.74,568.163 967.069,568.829 912.5,569.5C 912.5,578.833 912.5,588.167 912.5,597.5C 967.167,597.5 1021.83,597.5 1076.5,597.5C 1076.25,600.71 1076.25,603.71 1076.5,606.5C 1075.83,606.5 1075.17,606.5 1074.5,606.5C 1018.29,605.173 961.961,605.173 905.5,606.5C 905.167,606.5 904.833,606.5 904.5,606.5C 903.164,604.99 901.997,603.323 901,601.5C 900.333,589.5 900.333,577.5 901,565.5C 901.697,563.416 902.864,561.749 904.5,560.5C 952.294,559.843 999.961,559.176 1047.5,558.5 Z"/></g>
<g><path style="opacity:1" fill="#e78e9e" d="M 680.5,600.5 C 680.5,602.167 680.5,603.833 680.5,605.5C 682.415,605.216 684.081,605.549 685.5,606.5C 683.833,606.5 682.167,606.5 680.5,606.5C 680.5,608.5 680.5,610.5 680.5,612.5C 670.604,609.218 660.938,605.385 651.5,601C 661.161,600.5 670.828,600.334 680.5,600.5 Z"/></g>
<g><path style="opacity:1" fill="#63637b" d="M 1074.5,606.5 C 1035.67,607.499 996.67,607.832 957.5,607.5C 939.992,607.83 922.659,607.497 905.5,606.5C 961.961,605.173 1018.29,605.173 1074.5,606.5 Z"/></g>
<g><path style="opacity:1" fill="#8a5471" d="M 1074.5,606.5 C 1075.17,606.5 1075.83,606.5 1076.5,606.5C 1077.17,606.5 1077.83,606.5 1078.5,606.5C 1078.5,607.167 1078.5,607.833 1078.5,608.5C 1038.17,608.5 997.833,608.5 957.5,608.5C 957.5,608.167 957.5,607.833 957.5,607.5C 996.67,607.832 1035.67,607.499 1074.5,606.5 Z"/></g>
<g><path style="opacity:0.887" fill="#854354" d="M 1078.5,606.5 C 1106.83,606.5 1135.17,606.5 1163.5,606.5C 1163.72,616.692 1163.72,626.692 1163.5,636.5C 1163.17,636.5 1162.83,636.5 1162.5,636.5C 1162.5,627.167 1162.5,617.833 1162.5,608.5C 1134.5,608.5 1106.5,608.5 1078.5,608.5C 1078.5,607.833 1078.5,607.167 1078.5,606.5 Z"/></g>
<g><path style="opacity:1" fill="#763c4d" d="M 866.5,606.5 C 879.167,606.5 891.833,606.5 904.5,606.5C 904.833,606.5 905.167,606.5 905.5,606.5C 922.659,607.497 939.992,607.83 957.5,607.5C 957.5,607.833 957.5,608.167 957.5,608.5C 957.5,617.833 957.5,627.167 957.5,636.5C 929.328,636.169 901.328,636.502 873.5,637.5C 873.167,637.5 872.833,637.5 872.5,637.5C 869.034,627.968 866.034,618.301 863.5,608.5C 864.5,607.833 865.5,607.167 866.5,606.5 Z"/></g>
<g><path style="opacity:1" fill="#c2745c" d="M 644.5,609.5 C 645.167,609.5 645.5,609.833 645.5,610.5C 640.138,610.472 634.805,610.806 629.5,611.5C 629.918,610.778 630.584,610.278 631.5,610C 635.821,609.501 640.154,609.334 644.5,609.5 Z"/></g>
<g><path style="opacity:1" fill="#a07686" d="M 685.5,606.5 C 689.078,606.549 692.411,607.215 695.5,608.5C 690.833,608.167 686.167,607.833 681.5,607.5C 681.81,610.713 681.477,613.713 680.5,616.5C 680.5,615.167 680.5,613.833 680.5,612.5C 680.5,610.5 680.5,608.5 680.5,606.5C 682.167,606.5 683.833,606.5 685.5,606.5 Z"/></g>
<g><path style="opacity:1" fill="#9d6b66" d="M 624.5,611.5 C 621.026,612.525 617.36,613.192 613.5,613.5C 616.845,611.783 620.511,611.116 624.5,611.5 Z"/></g>
<g><path style="opacity:1" fill="#965264" d="M 957.5,608.5 C 997.833,608.5 1038.17,608.5 1078.5,608.5C 1106.5,608.5 1134.5,608.5 1162.5,608.5C 1162.5,617.833 1162.5,627.167 1162.5,636.5C 1141.66,636.169 1120.99,636.503 1100.5,637.5C 1095.17,637.5 1089.83,637.5 1084.5,637.5C 1042.34,636.501 1000,636.168 957.5,636.5C 957.5,627.167 957.5,617.833 957.5,608.5 Z"/></g>
<g><path style="opacity:1" fill="#8f5663" d="M 1074.5,610.5 C 1101.84,610.333 1129.17,610.5 1156.5,611C 1158.66,612.085 1158.82,613.251 1157,614.5C 1092.38,612.672 1027.55,611.838 962.5,612C 1000,611.833 1037.34,611.333 1074.5,610.5 Z"/></g>
<g><path style="opacity:1" fill="#616389" d="M 695.5,608.5 C 702.484,610.032 709.484,611.698 716.5,613.5C 720.486,618.17 724.153,623.17 727.5,628.5C 727.677,630.981 726.677,632.814 724.5,634C 726.134,634.494 727.801,634.66 729.5,634.5C 729.351,635.552 729.517,636.552 730,637.5C 731.55,638.591 732.717,639.924 733.5,641.5C 735.517,646.711 737.35,652.045 739,657.5C 739.377,658.942 740.21,659.942 741.5,660.5C 736.824,678.232 732.158,695.898 727.5,713.5C 726.532,711.393 726.198,709.059 726.5,706.5C 713.043,710.112 699.377,712.945 685.5,715C 654.05,718.418 627.883,708.585 607,685.5C 607.798,707.32 607.298,729.153 605.5,751C 605.833,754.167 606.167,757.333 606.5,760.5C 626.922,753.562 647.589,748.229 668.5,744.5C 668.5,747.833 668.5,751.167 668.5,754.5C 668.5,764.5 668.5,774.5 668.5,784.5C 668.5,784.833 668.5,785.167 668.5,785.5C 662.636,783.955 659.302,786.121 658.5,792C 658.643,794.151 659.643,795.818 661.5,797C 678.83,797.5 696.163,797.667 713.5,797.5C 782.669,797.167 851.669,797.501 920.5,798.5C 916.5,798.5 912.5,798.5 908.5,798.5C 852.5,798.5 796.5,798.5 740.5,798.5C 713.831,798.333 687.165,798.5 660.5,799C 638.996,819.428 614.996,836.428 588.5,850C 581.735,852.624 574.735,854.624 567.5,856C 560.464,856.991 554.131,855.324 548.5,851C 542.924,843.253 538.924,834.753 536.5,825.5C 535.167,825.5 533.833,825.5 532.5,825.5C 532.656,821.236 531.989,817.236 530.5,813.5C 530.784,811.585 530.451,809.919 529.5,808.5C 529.5,805.167 529.5,801.833 529.5,798.5C 529.16,771.224 530.16,744.058 532.5,717C 531.866,714.925 531.532,712.759 531.5,710.5C 531.962,702.074 532.962,693.74 534.5,685.5C 534.517,683.435 534.85,681.435 535.5,679.5C 535.66,677.847 536.326,676.514 537.5,675.5C 539.536,672.421 541.202,669.088 542.5,665.5C 547.448,658.578 552.115,651.578 556.5,644.5C 558.587,643.415 559.92,641.749 560.5,639.5C 561.939,637.64 563.605,635.973 565.5,634.5C 568.4,633.557 570.733,631.89 572.5,629.5C 574.754,628.876 576.421,627.543 577.5,625.5C 582.839,623.163 588.172,620.83 593.5,618.5C 600.458,617.565 607.124,615.898 613.5,613.5C 617.36,613.192 621.026,612.525 624.5,611.5C 626.167,611.5 627.833,611.5 629.5,611.5C 634.805,610.806 640.138,610.472 645.5,610.5C 645.306,619.618 649.306,626.118 657.5,630C 669.319,632.315 676.986,627.815 680.5,616.5C 681.477,613.713 681.81,610.713 681.5,607.5C 686.167,607.833 690.833,608.167 695.5,608.5 Z"/></g>
<g><path style="opacity:1" fill="#946a6f" d="M 613.5,613.5 C 607.124,615.898 600.458,617.565 593.5,618.5C 599.619,615.067 606.285,613.4 613.5,613.5 Z"/></g>
<g><path style="opacity:1" fill="#c2796d" d="M 577.5,625.5 C 576.421,627.543 574.754,628.876 572.5,629.5C 573.539,627.469 575.205,626.136 577.5,625.5 Z"/></g>
<g><path style="opacity:1" fill="#836676" d="M 727.5,628.5 C 729.601,631.248 731.434,634.248 733,637.5C 733.49,638.793 733.657,640.127 733.5,641.5C 732.717,639.924 731.55,638.591 730,637.5C 729.517,636.552 729.351,635.552 729.5,634.5C 727.801,634.66 726.134,634.494 724.5,634C 726.677,632.814 727.677,630.981 727.5,628.5 Z"/></g>
<g><path style="opacity:1" fill="#be7869" d="M 572.5,629.5 C 570.733,631.89 568.4,633.557 565.5,634.5C 567.228,632.123 569.561,630.456 572.5,629.5 Z"/></g>
<g><path style="opacity:1" fill="#fac261" d="M 863.5,608.5 C 866.034,618.301 869.034,627.968 872.5,637.5C 872.527,639.199 873.194,640.533 874.5,641.5C 873.5,641.5 872.5,641.5 871.5,641.5C 871.5,640.5 871.5,639.5 871.5,638.5C 843.5,638.5 815.5,638.5 787.5,638.5C 787.167,637.833 786.833,637.167 786.5,636.5C 814.167,636.5 841.833,636.5 869.5,636.5C 869.819,634.25 869.319,632.25 868,630.5C 867.508,631.549 867.674,632.549 868.5,633.5C 866.955,634.452 865.288,634.785 863.5,634.5C 863.784,631.223 863.451,628.057 862.5,625C 863.742,624.689 864.742,625.189 865.5,626.5C 865.833,626 866.167,625.5 866.5,625C 863.775,619.905 862.775,614.405 863.5,608.5 Z"/></g>
<g><path style="opacity:0.67" fill="#5f2233" d="M 873.5,637.5 C 901.328,636.502 929.328,636.169 957.5,636.5C 1000,636.168 1042.34,636.501 1084.5,637.5C 1084.67,638.492 1084.34,639.158 1083.5,639.5C 1013.84,637.503 943.841,636.837 873.5,637.5 Z"/></g>
<g><path style="opacity:0.747" fill="#6b2e3e" d="M 1162.5,636.5 C 1162.83,636.5 1163.17,636.5 1163.5,636.5C 1142.83,637.167 1122.17,637.833 1101.5,638.5C 1100.83,638.5 1100.5,638.167 1100.5,637.5C 1120.99,636.503 1141.66,636.169 1162.5,636.5 Z"/></g>
<g><path style="opacity:1" fill="#fdc458" d="M 787.5,638.5 C 815.5,638.5 843.5,638.5 871.5,638.5C 871.5,639.5 871.5,640.5 871.5,641.5C 843.5,641.5 815.5,641.5 787.5,641.5C 787.5,640.5 787.5,639.5 787.5,638.5 Z"/></g>
<g><path style="opacity:1" fill="#3a344c" d="M 1084.5,637.5 C 1089.83,637.5 1095.17,637.5 1100.5,637.5C 1100.5,638.167 1100.83,638.5 1101.5,638.5C 1101.5,638.833 1101.5,639.167 1101.5,639.5C 1100.67,773.333 1100.17,907.333 1100,1041.5C 1095.33,1042.83 1090.67,1042.83 1086,1041.5C 1085.5,1035.51 1085.33,1029.51 1085.5,1023.5C 1086.79,1020.32 1087.46,1016.99 1087.5,1013.5C 1088.8,1011.78 1089.47,1009.61 1089.5,1007C 1089.33,1004.83 1089.17,1002.67 1089,1000.5C 1088.25,998.249 1086.75,996.916 1084.5,996.5C 1084.16,995.662 1083.49,995.328 1082.5,995.5C 1083.5,876.904 1083.83,758.237 1083.5,639.5C 1084.34,639.158 1084.67,638.492 1084.5,637.5 Z"/></g>
<g><path style="opacity:1" fill="#a96e66" d="M 560.5,639.5 C 559.92,641.749 558.587,643.415 556.5,644.5C 557.08,642.251 558.413,640.585 560.5,639.5 Z"/></g>
<g><path style="opacity:1" fill="#edc897" d="M 761.5,641.5 C 770.167,641.5 778.833,641.5 787.5,641.5C 815.5,641.5 843.5,641.5 871.5,641.5C 871.158,642.338 870.492,642.672 869.5,642.5C 836.833,642.5 804.167,642.5 771.5,642.5C 767.434,642.307 763.434,642.64 759.5,643.5C 759.833,642.5 760.5,641.833 761.5,641.5 Z"/></g>
<g><path style="opacity:0.665" fill="#d9ddeb" d="M 965.5,647.5 C 962.337,645.754 959.004,644.254 955.5,643C 943,642.833 930.5,642.667 918,642.5C 905.012,642.519 892.178,643.186 879.5,644.5C 878.784,643.689 877.95,643.022 877,642.5C 874.865,643.127 872.698,643.627 870.5,644C 843.167,644.667 815.833,644.667 788.5,644C 815.67,643.832 842.67,643.332 869.5,642.5C 870.492,642.672 871.158,642.338 871.5,641.5C 872.5,641.5 873.5,641.5 874.5,641.5C 901.683,640.284 929.016,640.451 956.5,642C 960.2,642.843 963.2,644.676 965.5,647.5 Z"/></g>
<g><path style="opacity:1" fill="#e1e6fe" d="M 771.5,642.5 C 804.167,642.5 836.833,642.5 869.5,642.5C 842.67,643.332 815.67,643.832 788.5,644C 815.833,644.667 843.167,644.667 870.5,644C 872.698,643.627 874.865,643.127 877,642.5C 877.95,643.022 878.784,643.689 879.5,644.5C 892.178,643.186 905.012,642.519 918,642.5C 930.5,642.667 943,642.833 955.5,643C 959.004,644.254 962.337,645.754 965.5,647.5C 970.122,652.215 971.622,657.882 970,664.5C 959.37,704.057 948.536,743.557 937.5,783C 939.734,785.118 941.4,787.618 942.5,790.5C 942.159,793.562 940.492,795.728 937.5,797C 933.168,797.583 928.835,798.083 924.5,798.5C 923.167,798.5 921.833,798.5 920.5,798.5C 851.669,797.501 782.669,797.167 713.5,797.5C 709.741,793.537 709.741,789.704 713.5,786C 716.482,785.502 719.482,785.335 722.5,785.5C 732.447,745.5 742.28,705.5 752,665.5C 754.762,654.578 761.262,646.911 771.5,642.5 Z"/></g>
<g><path style="opacity:1" fill="#f17d4a" d="M 570.5,540.5 C 570.833,540.5 571.167,540.5 571.5,540.5C 571.756,543.598 572.422,546.598 573.5,549.5C 574.333,551.752 574.333,553.919 573.5,556C 574.448,556.483 575.448,556.649 576.5,556.5C 576.822,558.722 576.155,560.556 574.5,562C 576.207,562.195 577.874,562.195 579.5,562C 578.483,563.049 578.316,564.216 579,565.5C 581.766,568.777 584.933,571.443 588.5,573.5C 593.303,579.135 598.637,584.302 604.5,589C 616.427,598.373 629.76,601.873 644.5,599.5C 645.782,602.731 645.782,606.064 644.5,609.5C 640.154,609.334 635.821,609.501 631.5,610C 630.584,610.278 629.918,610.778 629.5,611.5C 627.833,611.5 626.167,611.5 624.5,611.5C 620.511,611.116 616.845,611.783 613.5,613.5C 606.285,613.4 599.619,615.067 593.5,618.5C 588.172,620.83 582.839,623.163 577.5,625.5C 575.205,626.136 573.539,627.469 572.5,629.5C 569.561,630.456 567.228,632.123 565.5,634.5C 563.605,635.973 561.939,637.64 560.5,639.5C 558.413,640.585 557.08,642.251 556.5,644.5C 552.115,651.578 547.448,658.578 542.5,665.5C 541.542,665.953 540.708,666.619 540,667.5C 538.409,669.927 537.575,672.593 537.5,675.5C 536.326,676.514 535.66,677.847 535.5,679.5C 533.288,682.321 532.288,685.655 532.5,689.5C 531.815,691.414 531.315,693.414 531,695.5C 528.847,729.978 528.347,764.311 529.5,798.5C 529.5,801.833 529.5,805.167 529.5,808.5C 529.334,813.511 529.501,818.511 530,823.5C 530.278,824.416 530.778,825.082 531.5,825.5C 531.263,826.791 531.596,827.791 532.5,828.5C 531.872,834.798 532.706,840.798 535,846.5C 535.167,848.667 535.333,850.833 535.5,853C 534.712,857.194 534.212,861.36 534,865.5C 534.333,865.833 534.667,866.167 535,866.5C 537.035,857.353 538.535,857.686 539.5,867.5C 540.518,868.193 541.518,868.859 542.5,869.5C 542.748,872.58 543.414,875.58 544.5,878.5C 543.729,880.771 542.729,882.938 541.5,885C 541.833,885.833 542.167,886.667 542.5,887.5C 543.223,884.93 544.39,882.597 546,880.5C 546.176,883.882 546.676,887.215 547.5,890.5C 548.192,889.975 548.692,889.308 549,888.5C 549.708,889.381 550.542,890.047 551.5,890.5C 556.746,899.086 562.412,907.42 568.5,915.5C 574.861,923.693 582.028,931.027 590,937.5C 591.303,937.022 592.469,936.355 593.5,935.5C 606.036,952.201 621.036,966.367 638.5,978C 642.738,979.542 646.738,981.375 650.5,983.5C 653.607,984.981 656.941,986.148 660.5,987C 669.01,987.823 677.344,987.657 685.5,986.5C 686.167,986.5 686.833,986.5 687.5,986.5C 691.819,985.965 696.152,985.465 700.5,985C 701.252,984.329 701.586,983.496 701.5,982.5C 705.207,981.154 708.874,979.821 712.5,978.5C 714.967,978.245 716.967,977.245 718.5,975.5C 732.569,967.124 745.569,957.124 757.5,945.5C 761.833,941.833 765.833,937.833 769.5,933.5C 770.677,931.968 772.011,930.468 773.5,929C 774.793,928.51 776.127,928.343 777.5,928.5C 777.351,929.552 777.517,930.552 778,931.5C 781.176,935.863 784.343,940.196 787.5,944.5C 782.112,950.391 776.446,956.224 770.5,962C 769.552,962.483 768.552,962.649 767.5,962.5C 767.719,963.675 767.386,964.675 766.5,965.5C 758.573,971.589 750.24,977.089 741.5,982C 739.866,982.494 738.199,982.66 736.5,982.5C 736.5,983.5 736.5,984.5 736.5,985.5C 721.462,990.458 706.462,995.291 691.5,1000C 671.084,1004.69 650.418,1006.36 629.5,1005C 625.853,1004.23 622.186,1003.56 618.5,1003C 597.748,993.935 580.081,980.602 565.5,963C 564.552,962.517 563.552,962.351 562.5,962.5C 559.53,958.68 556.696,954.68 554,950.5C 540.278,919.391 525.278,889.058 509,859.5C 505.208,850.627 501.708,841.627 498.5,832.5C 496.278,823.288 494.612,813.955 493.5,804.5C 493.709,803.914 494.043,803.414 494.5,803C 492.595,799.418 491.428,795.585 491,791.5C 489.404,776.709 488.571,761.875 488.5,747C 489.39,731.458 490.89,715.958 493,700.5C 494.556,695.327 496.389,690.327 498.5,685.5C 499.5,685.5 500.5,685.5 501.5,685.5C 501.343,684.127 501.51,682.793 502,681.5C 505.75,676.989 509.25,672.322 512.5,667.5C 524.317,656.85 535.984,646.017 547.5,635C 548.448,634.517 549.448,634.351 550.5,634.5C 550.626,631.532 552.126,629.532 555,628.5C 555.219,627.062 555.719,625.729 556.5,624.5C 572.687,610.742 576.853,593.742 569,573.5C 566.957,572.421 565.624,570.754 565,568.5C 563.331,564.654 562.164,560.654 561.5,556.5C 560.914,556.291 560.414,555.957 560,555.5C 559.013,551.525 559.513,547.859 561.5,544.5C 564.43,543.701 567.43,543.368 570.5,543.5C 570.5,542.5 570.5,541.5 570.5,540.5 Z"/></g>
<g><path style="opacity:1" fill="#c2c7f2" d="M 771.5,642.5 C 761.262,646.911 754.762,654.578 752,665.5C 742.28,705.5 732.447,745.5 722.5,785.5C 719.482,785.335 716.482,785.502 713.5,786C 709.741,789.704 709.741,793.537 713.5,797.5C 696.163,797.667 678.83,797.5 661.5,797C 659.643,795.818 658.643,794.151 658.5,792C 659.302,786.121 662.636,783.955 668.5,785.5C 682.5,785.5 696.5,785.5 710.5,785.5C 710.833,783.5 711.167,781.5 711.5,779.5C 713.59,772.976 715.257,766.31 716.5,759.5C 720.676,744.284 724.343,728.95 727.5,713.5C 732.158,695.898 736.824,678.232 741.5,660.5C 744.259,651.408 750.259,645.741 759.5,643.5C 763.434,642.64 767.434,642.307 771.5,642.5 Z"/></g>
<g><path style="opacity:1" fill="#ac6e66" d="M 542.5,665.5 C 541.202,669.088 539.536,672.421 537.5,675.5C 537.575,672.593 538.409,669.927 540,667.5C 540.708,666.619 541.542,665.953 542.5,665.5 Z"/></g>
<g><path style="opacity:1" fill="#c97b65" d="M 535.5,679.5 C 534.85,681.435 534.517,683.435 534.5,685.5C 533.833,686.833 533.167,688.167 532.5,689.5C 532.288,685.655 533.288,682.321 535.5,679.5 Z"/></g>
<g><path style="opacity:1" fill="#c4c8f4" d="M 854.5,685.5 C 858.923,685.744 861.756,688.078 863,692.5C 865.539,707.47 863.539,721.804 857,735.5C 849.072,747.014 843.738,746.014 841,732.5C 839.341,718.381 841.675,705.047 848,692.5C 849.862,689.833 852.028,687.5 854.5,685.5 Z"/></g>
<g><path style="opacity:1" fill="#e19f37" d="M 368.5,695.5 C 367.2,693.777 366.533,691.61 366.5,689C 366.977,684.818 367.143,680.651 367,676.5C 365.629,679.266 363.796,681.599 361.5,683.5C 363.043,681.072 364.043,678.406 364.5,675.5C 365.833,675.5 367.167,675.5 368.5,675.5C 367.531,682.194 367.531,688.86 368.5,695.5 Z"/></g>
<g><path style="opacity:1" fill="#b7aa17" d="M 368.5,695.5 C 369.833,710.967 374.499,725.134 382.5,738C 384.88,744.886 387.547,751.386 390.5,757.5C 391.548,762.488 392.714,767.488 394,772.5C 395.646,775.915 397.146,779.248 398.5,782.5C 398.216,784.415 398.549,786.081 399.5,787.5C 401.019,803.886 400.686,820.219 398.5,836.5C 396.887,842.066 394.887,847.399 392.5,852.5C 391.883,852.611 391.383,852.944 391,853.5C 390.403,856.958 389.403,860.291 388,863.5C 383.346,868.834 379.012,874.501 375,880.5C 370.385,888.707 366.218,897.04 362.5,905.5C 362.786,898.112 363.62,890.779 365,883.5C 368.465,872.105 372.132,860.771 376,849.5C 378.15,840.781 379.65,831.948 380.5,823C 377.5,800.997 373.667,779.163 369,757.5C 369.406,772.892 370.739,788.225 373,803.5C 373.667,812.5 373.667,821.5 373,830.5C 369.407,844.612 365.407,858.612 361,872.5C 358.641,888.753 357.475,905.086 357.5,921.5C 357.5,924.5 357.5,927.5 357.5,930.5C 353.889,930.639 351.223,932.306 349.5,935.5C 346.948,920.615 345.948,905.615 346.5,890.5C 348.852,874.514 350.852,858.347 352.5,842C 352.304,840.122 351.971,838.288 351.5,836.5C 353.792,832.794 354.126,828.794 352.5,824.5C 353.825,825.953 354.658,825.619 355,823.5C 355.573,809.816 355.239,796.149 354,782.5C 351.463,774.208 349.629,765.875 348.5,757.5C 346.121,741.675 345.954,725.675 348,709.5C 349.462,707.012 350.462,704.345 351,701.5C 354.373,695.325 357.873,689.325 361.5,683.5C 363.796,681.599 365.629,679.266 367,676.5C 367.143,680.651 366.977,684.818 366.5,689C 366.533,691.61 367.2,693.777 368.5,695.5 Z"/></g>
<g><path style="opacity:1" fill="#515475" d="M 727.5,713.5 C 724.343,728.95 720.676,744.284 716.5,759.5C 708.618,755.372 700.284,752.539 691.5,751C 683.998,749.811 676.998,750.977 670.5,754.5C 669.833,754.5 669.167,754.5 668.5,754.5C 668.5,751.167 668.5,747.833 668.5,744.5C 647.589,748.229 626.922,753.562 606.5,760.5C 606.167,757.333 605.833,754.167 605.5,751C 607.298,729.153 607.798,707.32 607,685.5C 627.883,708.585 654.05,718.418 685.5,715C 699.377,712.945 713.043,710.112 726.5,706.5C 726.198,709.059 726.532,711.393 727.5,713.5 Z"/></g>
<g><path style="opacity:1" fill="#796478" d="M 534.5,685.5 C 532.962,693.74 531.962,702.074 531.5,710.5C 531.532,712.759 531.866,714.925 532.5,717C 530.16,744.058 529.16,771.224 529.5,798.5C 528.347,764.311 528.847,729.978 531,695.5C 531.315,693.414 531.815,691.414 532.5,689.5C 533.167,688.167 533.833,686.833 534.5,685.5 Z"/></g>
<g><path style="opacity:1" fill="#f3b8ab" d="M 716.5,759.5 C 715.257,766.31 713.59,772.976 711.5,779.5C 709.393,778.7 707.226,778.033 705,777.5C 697.075,780.55 688.908,782.55 680.5,783.5C 676.833,783.5 673.167,783.5 669.5,783.5C 669.194,773.75 669.527,764.084 670.5,754.5C 676.998,750.977 683.998,749.811 691.5,751C 700.284,752.539 708.618,755.372 716.5,759.5 Z"/></g>
<g><path style="opacity:1" fill="#7a9c1d" d="M 351.5,836.5 C 351.971,838.288 352.304,840.122 352.5,842C 350.852,858.347 348.852,874.514 346.5,890.5C 345.596,891.209 345.263,892.209 345.5,893.5C 343.152,872.757 339.652,852.09 335,831.5C 333.254,827.673 331.254,824.007 329,820.5C 321.819,812.6 314.485,804.933 307,797.5C 305.667,795.5 304.333,793.5 303,791.5C 302.333,792.5 302.333,793.5 303,794.5C 311.311,808.152 319.644,821.819 328,835.5C 331.072,843.193 332.739,851.193 333,859.5C 333.654,880.851 334.654,902.185 336,923.5C 336.346,925.218 336.846,926.885 337.5,928.5C 337.154,929.696 336.654,929.696 336,928.5C 334.357,925.039 332.19,922.039 329.5,919.5C 327.732,916.838 327.065,913.838 327.5,910.5C 326.325,910.719 325.325,910.386 324.5,909.5C 323.548,905.912 321.881,902.912 319.5,900.5C 319.5,899.5 319.5,898.5 319.5,897.5C 319.59,894.848 318.924,892.515 317.5,890.5C 316.39,877.741 314.557,865.074 312,852.5C 310.217,846.933 307.883,841.599 305,836.5C 279.59,800.483 272.923,761.149 285,718.5C 283.805,742.586 291.138,763.586 307,781.5C 318.889,793.6 330.556,805.934 342,818.5C 345.956,824.079 349.123,830.079 351.5,836.5 Z"/></g>
<g><path style="opacity:1" fill="#bc9ca6" d="M 668.5,754.5 C 669.167,754.5 669.833,754.5 670.5,754.5C 669.527,764.084 669.194,773.75 669.5,783.5C 673.167,783.5 676.833,783.5 680.5,783.5C 676.702,784.483 672.702,784.817 668.5,784.5C 668.5,774.5 668.5,764.5 668.5,754.5 Z"/></g>
<g><path style="opacity:1" fill="#dd9f34" d="M 348.5,757.5 C 349.629,765.875 351.463,774.208 354,782.5C 355.239,796.149 355.573,809.816 355,823.5C 354.658,825.619 353.825,825.953 352.5,824.5C 351.841,821.545 351.508,818.545 351.5,815.5C 352.268,816.263 352.768,817.263 353,818.5C 353.167,813.333 353.333,808.167 353.5,803C 351.433,787.89 349.766,772.723 348.5,757.5 Z"/></g>
<g><path style="opacity:1" fill="#d7a331" d="M 390.5,757.5 C 391.375,759.568 392.541,761.568 394,763.5C 395.77,769.77 397.27,776.103 398.5,782.5C 397.146,779.248 395.646,775.915 394,772.5C 392.714,767.488 391.548,762.488 390.5,757.5 Z"/></g>
<g><path style="opacity:1" fill="#4c4b6a" d="M 711.5,779.5 C 711.167,781.5 710.833,783.5 710.5,785.5C 696.5,785.5 682.5,785.5 668.5,785.5C 668.5,785.167 668.5,784.833 668.5,784.5C 672.702,784.817 676.702,784.483 680.5,783.5C 688.908,782.55 697.075,780.55 705,777.5C 707.226,778.033 709.393,778.7 711.5,779.5 Z"/></g>
<g><path style="opacity:0.286" fill="#bfc2d8" d="M 942.5,790.5 C 942.88,795.115 940.88,798.115 936.5,799.5C 932.298,799.817 928.298,799.483 924.5,798.5C 928.835,798.083 933.168,797.583 937.5,797C 940.492,795.728 942.159,793.562 942.5,790.5 Z"/></g>
<g><path style="opacity:1" fill="#515375" d="M 740.5,798.5 C 730.109,808.894 719.442,818.894 708.5,828.5C 698.135,838.866 687.468,848.866 676.5,858.5C 648.61,883.971 620.943,909.638 593.5,935.5C 592.469,936.355 591.303,937.022 590,937.5C 582.028,931.027 574.861,923.693 568.5,915.5C 580.874,911.314 592.208,905.147 602.5,897C 618.091,884.411 631.591,869.911 643,853.5C 644.667,850.5 646.333,847.5 648,844.5C 649.455,839.19 647.455,836.857 642,837.5C 637.798,838.122 633.632,838.955 629.5,840C 609.353,849.063 588.687,857.063 567.5,864C 559.291,866.047 550.958,866.881 542.5,866.5C 537.903,854.11 534.57,841.443 532.5,828.5C 532.5,827.5 532.5,826.5 532.5,825.5C 533.833,825.5 535.167,825.5 536.5,825.5C 538.924,834.753 542.924,843.253 548.5,851C 554.131,855.324 560.464,856.991 567.5,856C 574.735,854.624 581.735,852.624 588.5,850C 614.996,836.428 638.996,819.428 660.5,799C 687.165,798.5 713.831,798.333 740.5,798.5 Z"/></g>
<g><path style="opacity:1" fill="#2a2b3f" d="M 740.5,798.5 C 796.5,798.5 852.5,798.5 908.5,798.5C 908.256,803.067 907.09,807.401 905,811.5C 904.333,817.167 904.333,822.833 905,828.5C 907.067,835.088 908.734,841.755 910,848.5C 911.399,849.227 912.899,849.727 914.5,850C 913.833,850.333 913.167,850.667 912.5,851C 914.317,854.47 916.484,857.637 919,860.5C 919.414,860.043 919.914,859.709 920.5,859.5C 921.821,866.161 924.987,872.161 930,877.5C 931.648,880.211 934.148,883.045 937.5,886C 937.167,886.333 936.833,886.667 936.5,887C 938.333,887.5 939.5,888.667 940,890.5C 940.333,890.167 940.667,889.833 941,889.5C 941.49,890.793 941.657,892.127 941.5,893.5C 944.833,893.5 948.167,893.5 951.5,893.5C 951.5,892.5 951.5,891.5 951.5,890.5C 955.182,890.665 958.848,890.499 962.5,890C 962.982,888.992 963.148,887.825 963,886.5C 964.062,885.903 965.228,885.57 966.5,885.5C 971.016,888.091 975.516,888.091 980,885.5C 984.116,887.399 988.283,889.065 992.5,890.5C 992.649,891.552 992.483,892.552 992,893.5C 991.667,893.167 991.333,892.833 991,892.5C 990.492,894.904 989.325,895.571 987.5,894.5C 983.555,895.268 979.555,895.768 975.5,896C 967.805,899.574 959.805,902.24 951.5,904C 952.167,904.333 952.833,904.667 953.5,905C 949.778,905.238 946.111,905.738 942.5,906.5C 941.833,908.167 941.167,909.833 940.5,911.5C 939.707,911.069 938.873,910.735 938,910.5C 936.502,912.559 934.502,913.892 932,914.5C 931.545,917.854 931.045,921.187 930.5,924.5C 926.891,910.848 924.558,896.848 923.5,882.5C 916.767,883.517 910.101,884.85 903.5,886.5C 896.916,874.996 890.083,863.663 883,852.5C 882.092,850.561 880.592,849.561 878.5,849.5C 878.649,848.448 878.483,847.448 878,846.5C 865.237,831.465 849.07,822.632 829.5,820C 797.345,818.877 765.345,820.544 733.5,825C 725.245,826.606 717.078,828.44 709,830.5C 708.536,829.906 708.369,829.239 708.5,828.5C 719.442,818.894 730.109,808.894 740.5,798.5 Z"/></g>
<g><path style="opacity:1" fill="#31334e" d="M 908.5,798.5 C 912.5,798.5 916.5,798.5 920.5,798.5C 921.833,798.5 923.167,798.5 924.5,798.5C 928.298,799.483 932.298,799.817 936.5,799.5C 949.929,801.58 962.929,804.913 975.5,809.5C 983.315,813.445 991.315,818.111 999.5,823.5C 1001.19,823.856 1002.19,824.856 1002.5,826.5C 1005.68,831.186 1008.68,836.02 1011.5,841C 1014.43,847.512 1016.6,854.679 1018,862.5C 1018.46,861.906 1018.63,861.239 1018.5,860.5C 1019.43,861.568 1019.77,862.901 1019.5,864.5C 1019.65,881.842 1018.98,899.342 1017.5,917C 1017.5,919.361 1017.84,921.527 1018.5,923.5C 1018.78,925.415 1018.45,927.081 1017.5,928.5C 1015.92,933.386 1014.92,939.719 1014.5,947.5C 1014.51,949.369 1014.84,951.036 1015.5,952.5C 1014.58,960.698 1013.24,968.698 1011.5,976.5C 1009.34,983.212 1007.67,991.379 1006.5,1001C 1006.53,1002.07 1006.86,1002.9 1007.5,1003.5C 1007.5,1003.83 1007.5,1004.17 1007.5,1004.5C 1005.35,1004.12 1003.19,1003.79 1001,1003.5C 998.119,1004.03 995.285,1004.69 992.5,1005.5C 990.703,1009.77 988.87,1014.1 987,1018.5C 986.503,1020.81 986.337,1023.14 986.5,1025.5C 982.5,1025.5 978.5,1025.5 974.5,1025.5C 974.082,1024.78 973.416,1024.28 972.5,1024C 973.308,1023.69 973.975,1023.19 974.5,1022.5C 972.87,1019.72 972.203,1016.72 972.5,1013.5C 966.731,1013.34 965.064,1010.5 967.5,1005C 964.129,1002.18 962.462,998.015 962.5,992.5C 961.5,992.5 960.5,992.5 959.5,992.5C 958.964,989.445 958.131,986.445 957,983.5C 953.864,980.555 952.364,976.888 952.5,972.5C 951.5,972.5 950.5,972.5 949.5,972.5C 947.187,967.395 945.353,962.062 944,956.5C 943.505,958.473 943.338,960.473 943.5,962.5C 940.069,952.328 935.735,942.994 930.5,934.5C 931.212,931.258 931.212,927.925 930.5,924.5C 931.045,921.187 931.545,917.854 932,914.5C 934.502,913.892 936.502,912.559 938,910.5C 938.873,910.735 939.707,911.069 940.5,911.5C 941.167,909.833 941.833,908.167 942.5,906.5C 946.111,905.738 949.778,905.238 953.5,905C 952.833,904.667 952.167,904.333 951.5,904C 959.805,902.24 967.805,899.574 975.5,896C 979.555,895.768 983.555,895.268 987.5,894.5C 989.325,895.571 990.492,894.904 991,892.5C 991.333,892.833 991.667,893.167 992,893.5C 992.483,892.552 992.649,891.552 992.5,890.5C 988.283,889.065 984.116,887.399 980,885.5C 975.516,888.091 971.016,888.091 966.5,885.5C 965.228,885.57 964.062,885.903 963,886.5C 963.148,887.825 962.982,888.992 962.5,890C 958.848,890.499 955.182,890.665 951.5,890.5C 951.5,891.5 951.5,892.5 951.5,893.5C 948.167,893.5 944.833,893.5 941.5,893.5C 941.657,892.127 941.49,890.793 941,889.5C 940.667,889.833 940.333,890.167 940,890.5C 939.5,888.667 938.333,887.5 936.5,887C 936.833,886.667 937.167,886.333 937.5,886C 934.148,883.045 931.648,880.211 930,877.5C 924.987,872.161 921.821,866.161 920.5,859.5C 919.914,859.709 919.414,860.043 919,860.5C 916.484,857.637 914.317,854.47 912.5,851C 913.167,850.667 913.833,850.333 914.5,850C 912.899,849.727 911.399,849.227 910,848.5C 908.734,841.755 907.067,835.088 905,828.5C 904.333,822.833 904.333,817.167 905,811.5C 907.09,807.401 908.256,803.067 908.5,798.5 Z"/></g>
<g><path style="opacity:1" fill="#cfa228" d="M 399.5,787.5 C 401.694,794.191 402.694,801.191 402.5,808.5C 402.331,815.191 401.831,821.858 401,828.5C 400.721,831.457 399.887,834.123 398.5,836.5C 400.686,820.219 401.019,803.886 399.5,787.5 Z"/></g>
<g><path style="opacity:0.463" fill="#111429" d="M 975.5,809.5 C 984.789,812.138 992.789,816.805 999.5,823.5C 991.315,818.111 983.315,813.445 975.5,809.5 Z"/></g>
<g><path style="opacity:1" fill="#89646a" d="M 530.5,813.5 C 531.989,817.236 532.656,821.236 532.5,825.5C 532.5,826.5 532.5,827.5 532.5,828.5C 531.596,827.791 531.263,826.791 531.5,825.5C 530.838,821.534 530.505,817.534 530.5,813.5 Z"/></g>
<g><path style="opacity:1" fill="#383854" d="M 903.5,886.5 C 911.997,902.832 920.997,918.832 930.5,934.5C 935.735,942.994 940.069,952.328 943.5,962.5C 946.907,974.183 946.074,985.516 941,996.5C 938.06,999.125 934.893,1001.29 931.5,1003C 926.164,1003.47 920.83,1003.97 915.5,1004.5C 907.314,1003.94 899.314,1002.44 891.5,1000C 871.134,990.577 852.967,978.077 837,962.5C 818.292,941.041 815.459,917.541 828.5,892C 832.645,885.69 836.978,879.524 841.5,873.5C 838.81,872.398 836.143,872.564 833.5,874C 829.78,876.7 825.78,879.033 821.5,881C 808.156,892.003 794.823,903.003 781.5,914C 753.229,929.148 723.562,932.815 692.5,925C 681.477,921.311 674.644,913.811 672,902.5C 671.188,894.778 671.522,887.111 673,879.5C 673.414,879.957 673.914,880.291 674.5,880.5C 675.372,872.908 677.038,865.575 679.5,858.5C 678.5,858.5 677.5,858.5 676.5,858.5C 687.468,848.866 698.135,838.866 708.5,828.5C 708.369,829.239 708.536,829.906 709,830.5C 717.078,828.44 725.245,826.606 733.5,825C 765.345,820.544 797.345,818.877 829.5,820C 849.07,822.632 865.237,831.465 878,846.5C 878.483,847.448 878.649,848.448 878.5,849.5C 880.592,849.561 882.092,850.561 883,852.5C 890.083,863.663 896.916,874.996 903.5,886.5 Z"/></g>
<g><path style="opacity:1" fill="#d37d63" d="M 529.5,808.5 C 530.451,809.919 530.784,811.585 530.5,813.5C 530.505,817.534 530.838,821.534 531.5,825.5C 530.778,825.082 530.278,824.416 530,823.5C 529.501,818.511 529.334,813.511 529.5,808.5 Z"/></g>
<g><path style="opacity:1" fill="#616389" d="M 568.5,915.5 C 562.412,907.42 556.746,899.086 551.5,890.5C 548.676,883.342 545.676,876.342 542.5,869.5C 542.5,868.5 542.5,867.5 542.5,866.5C 550.958,866.881 559.291,866.047 567.5,864C 588.687,857.063 609.353,849.063 629.5,840C 633.632,838.955 637.798,838.122 642,837.5C 647.455,836.857 649.455,839.19 648,844.5C 646.333,847.5 644.667,850.5 643,853.5C 631.591,869.911 618.091,884.411 602.5,897C 592.208,905.147 580.874,911.314 568.5,915.5 Z"/></g>
<g><path style="opacity:0.535" fill="#14172e" d="M 1002.5,826.5 C 1012.09,835.696 1017.43,847.029 1018.5,860.5C 1018.63,861.239 1018.46,861.906 1018,862.5C 1016.6,854.679 1014.43,847.512 1011.5,841C 1008.68,836.02 1005.68,831.186 1002.5,826.5 Z"/></g>
<g><path style="opacity:1" fill="#f39847" d="M 421.5,839.5 C 422.117,839.611 422.617,839.944 423,840.5C 442.76,901.408 475.927,953.908 522.5,998C 583.343,1050.9 653.676,1069.23 733.5,1053C 773.55,1046.77 810.55,1033.1 844.5,1012C 846.373,1010.3 848.04,1008.46 849.5,1006.5C 853.246,1009.58 857.246,1012.25 861.5,1014.5C 861.833,1015.17 862.167,1015.83 862.5,1016.5C 835.212,1049.88 800.545,1072.38 758.5,1084C 696.051,1099.52 633.051,1102.19 569.5,1092C 500.262,1077.54 447.262,1040.37 410.5,980.5C 409.908,977.873 409.575,975.206 409.5,972.5C 411.428,965.515 413.095,958.348 414.5,951C 414.23,946.758 413.563,942.591 412.5,938.5C 410.5,938.167 408.5,937.833 406.5,937.5C 405.833,937.5 405.167,937.5 404.5,937.5C 399.349,936.673 394.016,936.173 388.5,936C 387.756,934.961 386.756,934.461 385.5,934.5C 390.776,926.289 396.776,918.623 403.5,911.5C 406.297,909.205 408.964,906.705 411.5,904C 404.545,904.485 398.212,906.652 392.5,910.5C 390.5,911.167 388.5,911.833 386.5,912.5C 386.062,912.565 385.728,912.399 385.5,912C 389.038,905.774 393.204,899.941 398,894.5C 398.49,893.207 398.657,891.873 398.5,890.5C 400.76,889.861 402.76,888.694 404.5,887C 405.454,883.208 407.787,881.042 411.5,880.5C 413.519,873.479 416.019,866.479 419,859.5C 420.765,852.947 421.598,846.281 421.5,839.5 Z"/></g>
<g><path style="opacity:1" fill="#688919" d="M 345.5,893.5 C 345.5,907.833 345.5,922.167 345.5,936.5C 334.752,936.809 324.085,936.476 313.5,935.5C 301.455,934.158 290.122,930.658 279.5,925C 277.963,923.89 277.297,922.39 277.5,920.5C 278.959,920.567 280.292,920.234 281.5,919.5C 282.952,920.302 284.618,920.802 286.5,921C 284.1,921.186 281.766,921.686 279.5,922.5C 282.631,925.497 286.298,927.663 290.5,929C 298.006,931.502 305.673,932.836 313.5,933C 310.623,932.044 307.956,930.711 305.5,929C 312.863,930.172 320.196,931.672 327.5,933.5C 329.567,935.512 331.9,935.846 334.5,934.5C 334.058,933.261 333.391,932.261 332.5,931.5C 331.116,927.664 330.116,923.664 329.5,919.5C 332.19,922.039 334.357,925.039 336,928.5C 336.654,929.696 337.154,929.696 337.5,928.5C 336.846,926.885 336.346,925.218 336,923.5C 334.654,902.185 333.654,880.851 333,859.5C 332.739,851.193 331.072,843.193 328,835.5C 319.644,821.819 311.311,808.152 303,794.5C 302.333,793.5 302.333,792.5 303,791.5C 304.333,793.5 305.667,795.5 307,797.5C 314.485,804.933 321.819,812.6 329,820.5C 331.254,824.007 333.254,827.673 335,831.5C 339.652,852.09 343.152,872.757 345.5,893.5 Z"/></g>
<g><path style="opacity:1" fill="#8f9213" d="M 362.5,905.5 C 362.5,906.167 362.5,906.833 362.5,907.5C 360.414,912.024 358.747,916.69 357.5,921.5C 357.475,905.086 358.641,888.753 361,872.5C 365.407,858.612 369.407,844.612 373,830.5C 373.667,821.5 373.667,812.5 373,803.5C 370.739,788.225 369.406,772.892 369,757.5C 373.667,779.163 377.5,800.997 380.5,823C 379.65,831.948 378.15,840.781 376,849.5C 372.132,860.771 368.465,872.105 365,883.5C 363.62,890.779 362.786,898.112 362.5,905.5 Z"/></g>
<g><path style="opacity:1" fill="#dc7a56" d="M 532.5,828.5 C 534.57,841.443 537.903,854.11 542.5,866.5C 542.5,867.5 542.5,868.5 542.5,869.5C 541.518,868.859 540.518,868.193 539.5,867.5C 538.535,857.686 537.035,857.353 535,866.5C 534.667,866.167 534.333,865.833 534,865.5C 534.212,861.36 534.712,857.194 535.5,853C 535.333,850.833 535.167,848.667 535,846.5C 532.706,840.798 531.872,834.798 532.5,828.5 Z"/></g>
<g><path style="opacity:0.567" fill="#a7a009" d="M 317.5,890.5 C 318.924,892.515 319.59,894.848 319.5,897.5C 310.593,887.528 300.593,878.695 289.5,871C 279.84,862.673 270.506,854.006 261.5,845C 256.667,842.167 251.833,839.333 247,836.5C 245.635,837.593 245.301,838.926 246,840.5C 254.547,856.728 264.214,872.395 275,887.5C 283.398,897.579 293.231,905.746 304.5,912C 305.823,912.816 306.489,913.983 306.5,915.5C 294.082,908.597 283.248,899.597 274,888.5C 261.543,870.424 249.709,851.924 238.5,833C 240.167,832.333 241.833,832.333 243.5,833C 251.163,836.829 258.496,841.163 265.5,846C 282.108,862.499 299.441,877.333 317.5,890.5 Z"/></g>
<g><path style="opacity:1" fill="#2d2e41" d="M 676.5,858.5 C 677.5,858.5 678.5,858.5 679.5,858.5C 677.038,865.575 675.372,872.908 674.5,880.5C 673.914,880.291 673.414,879.957 673,879.5C 671.522,887.111 671.188,894.778 672,902.5C 674.644,913.811 681.477,921.311 692.5,925C 723.562,932.815 753.229,929.148 781.5,914C 794.823,903.003 808.156,892.003 821.5,881C 825.78,879.033 829.78,876.7 833.5,874C 836.143,872.564 838.81,872.398 841.5,873.5C 836.978,879.524 832.645,885.69 828.5,892C 815.459,917.541 818.292,941.041 837,962.5C 852.967,978.077 871.134,990.577 891.5,1000C 899.314,1002.44 907.314,1003.94 915.5,1004.5C 920.83,1003.97 926.164,1003.47 931.5,1003C 934.893,1001.29 938.06,999.125 941,996.5C 946.074,985.516 946.907,974.183 943.5,962.5C 943.338,960.473 943.505,958.473 944,956.5C 945.353,962.062 947.187,967.395 949.5,972.5C 950.5,972.5 951.5,972.5 952.5,972.5C 952.364,976.888 953.864,980.555 957,983.5C 958.131,986.445 958.964,989.445 959.5,992.5C 960.5,992.5 961.5,992.5 962.5,992.5C 962.462,998.015 964.129,1002.18 967.5,1005C 965.064,1010.5 966.731,1013.34 972.5,1013.5C 972.203,1016.72 972.87,1019.72 974.5,1022.5C 973.975,1023.19 973.308,1023.69 972.5,1024C 973.416,1024.28 974.082,1024.78 974.5,1025.5C 974.504,1027.84 975.337,1029.84 977,1031.5C 977.733,1036.46 975.567,1039.63 970.5,1041C 968.946,1043.37 967.279,1045.54 965.5,1047.5C 961.309,1052.07 956.643,1056.07 951.5,1059.5C 918.974,1049.24 888.974,1034.24 861.5,1014.5C 857.246,1012.25 853.246,1009.58 849.5,1006.5C 843.167,1001.17 836.833,995.833 830.5,990.5C 827.833,987.833 825.167,985.167 822.5,982.5C 821.833,982.167 821.167,981.833 820.5,981.5C 809.158,969.49 798.158,957.157 787.5,944.5C 784.343,940.196 781.176,935.863 778,931.5C 777.517,930.552 777.351,929.552 777.5,928.5C 776.127,928.343 774.793,928.51 773.5,929C 772.011,930.468 770.677,931.968 769.5,933.5C 767.154,934.523 764.821,935.523 762.5,936.5C 762.594,939.541 761.094,941.207 758,941.5C 757.51,942.793 757.343,944.127 757.5,945.5C 745.569,957.124 732.569,967.124 718.5,975.5C 716.033,975.755 714.033,976.755 712.5,978.5C 708.874,979.821 705.207,981.154 701.5,982.5C 696.639,983.465 691.972,984.799 687.5,986.5C 686.833,986.5 686.167,986.5 685.5,986.5C 677.493,986.666 669.493,986.5 661.5,986C 658.037,984.531 654.37,983.697 650.5,983.5C 646.738,981.375 642.738,979.542 638.5,978C 621.036,966.367 606.036,952.201 593.5,935.5C 620.943,909.638 648.61,883.971 676.5,858.5 Z"/></g>
<g><path style="opacity:1" fill="#a98e15" d="M 421.5,836.5 C 421.5,837.5 421.5,838.5 421.5,839.5C 421.598,846.281 420.765,852.947 419,859.5C 416.019,866.479 413.519,873.479 411.5,880.5C 407.787,881.042 405.454,883.208 404.5,887C 402.76,888.694 400.76,889.861 398.5,890.5C 398.657,891.873 398.49,893.207 398,894.5C 393.204,899.941 389.038,905.774 385.5,912C 385.728,912.399 386.062,912.565 386.5,912.5C 381.54,915.792 377.207,919.792 373.5,924.5C 372.351,924.209 371.684,923.376 371.5,922C 372.383,915.684 373.883,909.518 376,903.5C 381.259,894.972 385.925,886.306 390,877.5C 378.452,890.203 369.619,904.536 363.5,920.5C 362.508,916.217 362.174,911.884 362.5,907.5C 362.5,906.833 362.5,906.167 362.5,905.5C 366.218,897.04 370.385,888.707 375,880.5C 379.012,874.501 383.346,868.834 388,863.5C 389.403,860.291 390.403,856.958 391,853.5C 391.383,852.944 391.883,852.611 392.5,852.5C 391.677,854.455 391.51,856.455 392,858.5C 400.288,849.039 410.121,841.706 421.5,836.5 Z"/></g>
<g><path style="opacity:0.396" fill="#2d2440" d="M 1101.5,639.5 C 1101.5,774.167 1101.5,908.833 1101.5,1043.5C 1095.82,1043.67 1090.16,1043.5 1084.5,1043C 1083.66,1041.99 1083.33,1040.82 1083.5,1039.5C 1084.48,1036.04 1084.81,1032.37 1084.5,1028.5C 1084.22,1026.59 1084.55,1024.92 1085.5,1023.5C 1085.33,1029.51 1085.5,1035.51 1086,1041.5C 1090.67,1042.83 1095.33,1042.83 1100,1041.5C 1100.17,907.333 1100.67,773.333 1101.5,639.5 Z"/></g>
<g><path style="opacity:1" fill="#e27c54" d="M 542.5,869.5 C 545.676,876.342 548.676,883.342 551.5,890.5C 550.542,890.047 549.708,889.381 549,888.5C 548.692,889.308 548.192,889.975 547.5,890.5C 546.676,887.215 546.176,883.882 546,880.5C 544.39,882.597 543.223,884.93 542.5,887.5C 542.167,886.667 541.833,885.833 541.5,885C 542.729,882.938 543.729,880.771 544.5,878.5C 543.414,875.58 542.748,872.58 542.5,869.5 Z"/></g>
<g><path style="opacity:1" fill="#b6ab16" d="M 319.5,897.5 C 319.5,898.5 319.5,899.5 319.5,900.5C 319.66,902.199 319.494,903.866 319,905.5C 310.729,895.895 301.229,887.729 290.5,881C 283.432,874.687 276.932,867.854 271,860.5C 279.737,878.922 292.57,894.088 309.5,906C 317.374,914.371 325.04,922.871 332.5,931.5C 333.391,932.261 334.058,933.261 334.5,934.5C 331.9,935.846 329.567,935.512 327.5,933.5C 324.327,929.488 321.327,925.321 318.5,921C 314.57,920.758 310.903,919.925 307.5,918.5C 308.239,918.631 308.906,918.464 309.5,918C 308.429,917.148 307.429,916.315 306.5,915.5C 306.489,913.983 305.823,912.816 304.5,912C 293.231,905.746 283.398,897.579 275,887.5C 264.214,872.395 254.547,856.728 246,840.5C 245.301,838.926 245.635,837.593 247,836.5C 251.833,839.333 256.667,842.167 261.5,845C 270.506,854.006 279.84,862.673 289.5,871C 300.593,878.695 310.593,887.528 319.5,897.5 Z"/></g>
<g><path style="opacity:1" fill="#8f9313" d="M 319.5,900.5 C 321.881,902.912 323.548,905.912 324.5,909.5C 325.325,910.386 326.325,910.719 327.5,910.5C 327.065,913.838 327.732,916.838 329.5,919.5C 330.116,923.664 331.116,927.664 332.5,931.5C 325.04,922.871 317.374,914.371 309.5,906C 292.57,894.088 279.737,878.922 271,860.5C 276.932,867.854 283.432,874.687 290.5,881C 301.229,887.729 310.729,895.895 319,905.5C 319.494,903.866 319.66,902.199 319.5,900.5 Z"/></g>
<g><path style="opacity:0.553" fill="#17182e" d="M 930.5,924.5 C 931.212,927.925 931.212,931.258 930.5,934.5C 920.997,918.832 911.997,902.832 903.5,886.5C 910.101,884.85 916.767,883.517 923.5,882.5C 924.558,896.848 926.891,910.848 930.5,924.5 Z M 920.5,883.5 C 921.117,883.611 921.617,883.944 922,884.5C 923.504,900.033 925.837,915.366 929,930.5C 921.768,916.117 913.934,902.117 905.5,888.5C 910.503,886.67 915.503,885.004 920.5,883.5 Z"/></g>
<g><path style="opacity:1" fill="#616112" d="M 403.5,911.5 C 403.703,909.956 404.37,908.622 405.5,907.5C 405,907.167 404.5,906.833 404,906.5C 400.256,908.137 396.423,909.47 392.5,910.5C 398.212,906.652 404.545,904.485 411.5,904C 408.964,906.705 406.297,909.205 403.5,911.5 Z"/></g>
<g><path style="opacity:0.882" fill="#181a33" d="M 1019.5,864.5 C 1020.84,884.192 1020.51,903.859 1018.5,923.5C 1017.84,921.527 1017.5,919.361 1017.5,917C 1018.98,899.342 1019.65,881.842 1019.5,864.5 Z"/></g>
<g><path style="opacity:1" fill="#7b9c1d" d="M 307.5,918.5 C 310.903,919.925 314.57,920.758 318.5,921C 321.327,925.321 324.327,929.488 327.5,933.5C 320.196,931.672 312.863,930.172 305.5,929C 307.956,930.711 310.623,932.044 313.5,933C 305.673,932.836 298.006,931.502 290.5,929C 286.298,927.663 282.631,925.497 279.5,922.5C 281.766,921.686 284.1,921.186 286.5,921C 284.618,920.802 282.952,920.302 281.5,919.5C 290.152,918.854 298.818,918.521 307.5,918.5 Z"/></g>
<g><path style="opacity:1" fill="#847f13" d="M 373.5,924.5 C 371.828,928.553 370.161,932.553 368.5,936.5C 364.833,936.5 361.167,936.5 357.5,936.5C 357.5,934.5 357.5,932.5 357.5,930.5C 357.5,927.5 357.5,924.5 357.5,921.5C 358.747,916.69 360.414,912.024 362.5,907.5C 362.174,911.884 362.508,916.217 363.5,920.5C 369.619,904.536 378.452,890.203 390,877.5C 385.925,886.306 381.259,894.972 376,903.5C 373.883,909.518 372.383,915.684 371.5,922C 371.684,923.376 372.351,924.209 373.5,924.5 Z"/></g>
<g><path style="opacity:1" fill="#446213" d="M 403.5,911.5 C 396.776,918.623 390.776,926.289 385.5,934.5C 385.167,935.167 384.833,935.833 384.5,936.5C 379.167,936.5 373.833,936.5 368.5,936.5C 370.161,932.553 371.828,928.553 373.5,924.5C 377.207,919.792 381.54,915.792 386.5,912.5C 388.5,911.833 390.5,911.167 392.5,910.5C 396.423,909.47 400.256,908.137 404,906.5C 404.5,906.833 405,907.167 405.5,907.5C 404.37,908.622 403.703,909.956 403.5,911.5 Z"/></g>
<g><path style="opacity:0.427" fill="#101328" d="M 1017.5,928.5 C 1017.33,936.545 1016.66,944.545 1015.5,952.5C 1014.84,951.036 1014.51,949.369 1014.5,947.5C 1014.92,939.719 1015.92,933.386 1017.5,928.5 Z"/></g>
<g><path style="opacity:1" fill="#8f9315" d="M 346.5,890.5 C 345.948,905.615 346.948,920.615 349.5,935.5C 351.223,932.306 353.889,930.639 357.5,930.5C 357.5,932.5 357.5,934.5 357.5,936.5C 353.5,936.5 349.5,936.5 345.5,936.5C 345.5,922.167 345.5,907.833 345.5,893.5C 345.263,892.209 345.596,891.209 346.5,890.5 Z"/></g>
<g><path style="opacity:1" fill="#5e6637" d="M 313.5,935.5 C 324.085,936.476 334.752,936.809 345.5,936.5C 349.5,936.5 353.5,936.5 357.5,936.5C 361.167,936.5 364.833,936.5 368.5,936.5C 373.833,936.5 379.167,936.5 384.5,936.5C 384.5,936.833 384.5,937.167 384.5,937.5C 384.167,937.5 383.833,937.5 383.5,937.5C 357.167,937.5 330.833,937.5 304.5,937.5C 304.5,937.167 304.5,936.833 304.5,936.5C 307.713,936.81 310.713,936.477 313.5,935.5 Z"/></g>
<g><path style="opacity:1" fill="#c59d82" d="M 385.5,934.5 C 386.756,934.461 387.756,934.961 388.5,936C 394.016,936.173 399.349,936.673 404.5,937.5C 399.167,937.5 393.833,937.5 388.5,937.5C 387.167,937.5 385.833,937.5 384.5,937.5C 384.5,937.167 384.5,936.833 384.5,936.5C 384.833,935.833 385.167,935.167 385.5,934.5 Z"/></g>
<g><path style="opacity:1" fill="#4b383a" d="M 388.5,937.5 C 393.833,937.5 399.167,937.5 404.5,937.5C 405.167,937.5 405.833,937.5 406.5,937.5C 407.789,938.637 408.789,939.97 409.5,941.5C 407.567,941.271 405.9,940.438 404.5,939C 398.984,938.827 393.651,938.327 388.5,937.5 Z"/></g>
<g><path style="opacity:1" fill="#3b2e31" d="M 769.5,933.5 C 765.833,937.833 761.833,941.833 757.5,945.5C 757.343,944.127 757.51,942.793 758,941.5C 761.094,941.207 762.594,939.541 762.5,936.5C 764.821,935.523 767.154,934.523 769.5,933.5 Z"/></g>
<g><path style="opacity:1" fill="#2f2d41" d="M 304.5,937.5 C 330.833,937.5 357.167,937.5 383.5,937.5C 364.996,938.167 346.329,938.833 327.5,939.5C 326.5,940.167 325.5,940.833 324.5,941.5C 315.531,959.852 314.031,978.852 320,998.5C 330.888,1025.05 348.055,1046.55 371.5,1063C 377.453,1066.5 383.453,1069.67 389.5,1072.5C 388.781,1074.89 387.115,1076.39 384.5,1077C 357.164,1078.95 329.83,1078.95 302.5,1077C 300.083,1075.34 298.25,1073.17 297,1070.5C 294.666,1056.83 292.332,1043.16 290,1029.5C 289.536,1030.09 289.369,1030.76 289.5,1031.5C 288.596,1030.79 288.263,1029.79 288.5,1028.5C 289.152,1027.55 289.486,1026.38 289.5,1025C 288.716,1017.36 287.383,1011.19 285.5,1006.5C 284.596,1005.79 284.263,1004.79 284.5,1003.5C 285.152,1002.55 285.486,1001.38 285.5,1000C 283.054,984.825 280.554,969.658 278,954.5C 276.121,947.899 277.954,942.732 283.5,939C 290.679,938.829 297.679,938.329 304.5,937.5 Z"/></g>
<g><path style="opacity:1" fill="#3a3754" d="M 383.5,937.5 C 383.833,937.5 384.167,937.5 384.5,937.5C 385.833,937.5 387.167,937.5 388.5,937.5C 393.651,938.327 398.984,938.827 404.5,939C 405.9,940.438 407.567,941.271 409.5,941.5C 410.75,941.577 411.583,942.244 412,943.5C 412.157,953.238 411.324,962.905 409.5,972.5C 408.532,974.607 408.198,976.941 408.5,979.5C 407.807,984.684 406.807,989.684 405.5,994.5C 405.649,993.448 405.483,992.448 405,991.5C 400.666,1016.17 396.333,1040.84 392,1065.5C 391.844,1068.19 391.011,1070.52 389.5,1072.5C 383.453,1069.67 377.453,1066.5 371.5,1063C 348.055,1046.55 330.888,1025.05 320,998.5C 314.031,978.852 315.531,959.852 324.5,941.5C 325.5,940.833 326.5,940.167 327.5,939.5C 346.329,938.833 364.996,938.167 383.5,937.5 Z"/></g>
<g><path style="opacity:1" fill="#f39948" d="M 787.5,944.5 C 798.158,957.157 809.158,969.49 820.5,981.5C 764.983,1007.83 706.316,1019.67 644.5,1017C 627.317,1016.38 611.651,1011.38 597.5,1002C 582.929,991.323 571.262,978.156 562.5,962.5C 563.552,962.351 564.552,962.517 565.5,963C 580.081,980.602 597.748,993.935 618.5,1003C 622.186,1003.56 625.853,1004.23 629.5,1005C 650.418,1006.36 671.084,1004.69 691.5,1000C 706.462,995.291 721.462,990.458 736.5,985.5C 736.5,984.5 736.5,983.5 736.5,982.5C 738.199,982.66 739.866,982.494 741.5,982C 750.24,977.089 758.573,971.589 766.5,965.5C 767.386,964.675 767.719,963.675 767.5,962.5C 768.552,962.649 769.552,962.483 770.5,962C 776.446,956.224 782.112,950.391 787.5,944.5 Z"/></g>
<g><path style="opacity:0.827" fill="#161523" d="M 304.5,936.5 C 304.5,936.833 304.5,937.167 304.5,937.5C 297.679,938.329 290.679,938.829 283.5,939C 277.954,942.732 276.121,947.899 278,954.5C 280.554,969.658 283.054,984.825 285.5,1000C 285.486,1001.38 285.152,1002.55 284.5,1003.5C 281.055,984.553 278.222,965.553 276,946.5C 277.068,941.765 279.901,938.598 284.5,937C 291.158,936.5 297.825,936.334 304.5,936.5 Z"/></g>
<g><path style="opacity:1" fill="#d79356" d="M 406.5,937.5 C 408.5,937.833 410.5,938.167 412.5,938.5C 413.563,942.591 414.23,946.758 414.5,951C 413.095,958.348 411.428,965.515 409.5,972.5C 411.324,962.905 412.157,953.238 412,943.5C 411.583,942.244 410.75,941.577 409.5,941.5C 408.789,939.97 407.789,938.637 406.5,937.5 Z"/></g>
<g><path style="opacity:0.918" fill="#7b5747" d="M 409.5,972.5 C 409.575,975.206 409.908,977.873 410.5,980.5C 409.833,980.167 409.167,979.833 408.5,979.5C 408.198,976.941 408.532,974.607 409.5,972.5 Z"/></g>
<g><path style="opacity:1" fill="#a7614b" d="M 718.5,975.5 C 716.967,977.245 714.967,978.245 712.5,978.5C 714.033,976.755 716.033,975.755 718.5,975.5 Z"/></g>
<g><path style="opacity:1" fill="#c47151" d="M 701.5,982.5 C 701.586,983.496 701.252,984.329 700.5,985C 696.152,985.465 691.819,985.965 687.5,986.5C 691.972,984.799 696.639,983.465 701.5,982.5 Z"/></g>
<g><path style="opacity:1" fill="#af654b" d="M 650.5,983.5 C 654.37,983.697 658.037,984.531 661.5,986C 669.493,986.5 677.493,986.666 685.5,986.5C 677.344,987.657 669.01,987.823 660.5,987C 656.941,986.148 653.607,984.981 650.5,983.5 Z"/></g>
<g><path style="opacity:1" fill="#d3ae65" d="M 822.5,982.5 C 825.167,985.167 827.833,987.833 830.5,990.5C 826.5,989.167 823.833,986.5 822.5,982.5 Z"/></g>
<g><path style="opacity:0.449" fill="#16172f" d="M 1011.5,976.5 C 1010.71,985.592 1009.37,994.592 1007.5,1003.5C 1006.86,1002.9 1006.53,1002.07 1006.5,1001C 1007.67,991.379 1009.34,983.212 1011.5,976.5 Z"/></g>
<g><path style="opacity:1" fill="#ab5071" d="M 1084.5,996.5 C 1086.75,996.916 1088.25,998.249 1089,1000.5C 1089.17,1002.67 1089.33,1004.83 1089.5,1007C 1089.47,1009.61 1088.8,1011.78 1087.5,1013.5C 1087.83,1008.4 1087.33,1003.4 1086,998.5C 1084.27,997.751 1082.43,997.251 1080.5,997C 1081.79,996.51 1083.13,996.343 1084.5,996.5 Z"/></g>
<g><path style="opacity:1" fill="#d15371" d="M 1082.5,995.5 C 1083.49,995.328 1084.16,995.662 1084.5,996.5C 1083.13,996.343 1081.79,996.51 1080.5,997C 1082.43,997.251 1084.27,997.751 1086,998.5C 1087.33,1003.4 1087.83,1008.4 1087.5,1013.5C 1087.46,1016.99 1086.79,1020.32 1085.5,1023.5C 1084.55,1024.92 1084.22,1026.59 1084.5,1028.5C 1082.26,1029.3 1081.26,1030.97 1081.5,1033.5C 1074.84,1050.48 1066.34,1066.48 1056,1081.5C 1052.72,1085.76 1049.22,1089.76 1045.5,1093.5C 1042.4,1096.1 1039.4,1098.93 1036.5,1102C 1034.04,1103.63 1031.54,1103.8 1029,1102.5C 1028.33,1098.83 1028.33,1095.17 1029,1091.5C 1034.57,1068.86 1043.07,1047.36 1054.5,1027C 1053.91,1026.54 1053.24,1026.37 1052.5,1026.5C 1057.54,1020.12 1062.38,1013.45 1067,1006.5C 1070.17,1003.33 1073.33,1000.17 1076.5,997C 1078.35,995.872 1080.35,995.372 1082.5,995.5 Z"/></g>
<g><path style="opacity:1" fill="#d25472" d="M 1007.5,1004.5 C 1009.83,1007 1012,1009.67 1014,1012.5C 1015.83,1019.13 1017.33,1025.8 1018.5,1032.5C 1017.9,1032.74 1017.57,1033.24 1017.5,1034C 1021.97,1056.38 1023.63,1078.88 1022.5,1101.5C 1020.42,1104.1 1018.42,1106.94 1016.5,1110C 1014.13,1111.84 1011.47,1113.01 1008.5,1113.5C 997.106,1111.94 990.272,1105.28 988,1093.5C 983.891,1071.24 983.391,1048.91 986.5,1026.5C 986.5,1026.17 986.5,1025.83 986.5,1025.5C 986.337,1023.14 986.503,1020.81 987,1018.5C 988.87,1014.1 990.703,1009.77 992.5,1005.5C 995.285,1004.69 998.119,1004.03 1001,1003.5C 1003.19,1003.79 1005.35,1004.12 1007.5,1004.5 Z"/></g>
<g><path style="opacity:0.051" fill="#100f20" d="M 288.5,1028.5 C 287.127,1021.22 286.127,1013.89 285.5,1006.5C 287.383,1011.19 288.716,1017.36 289.5,1025C 289.486,1026.38 289.152,1027.55 288.5,1028.5 Z"/></g>
<g><path style="opacity:0.141" fill="#8f415f" d="M 1084.5,1028.5 C 1084.81,1032.37 1084.48,1036.04 1083.5,1039.5C 1083.66,1036.81 1083.5,1034.15 1083,1031.5C 1082.72,1032.42 1082.22,1033.08 1081.5,1033.5C 1081.26,1030.97 1082.26,1029.3 1084.5,1028.5 Z"/></g>
<g><path style="opacity:1" fill="#ae2e48" d="M 1052.5,1026.5 C 1053.24,1026.37 1053.91,1026.54 1054.5,1027C 1043.07,1047.36 1034.57,1068.86 1029,1091.5C 1028.33,1095.17 1028.33,1098.83 1029,1102.5C 1031.54,1103.8 1034.04,1103.63 1036.5,1102C 1039.4,1098.93 1042.4,1096.1 1045.5,1093.5C 1043.07,1097.77 1039.73,1101.27 1035.5,1104C 1030.82,1104.88 1026.49,1104.05 1022.5,1101.5C 1023.63,1078.88 1021.97,1056.38 1017.5,1034C 1017.57,1033.24 1017.9,1032.74 1018.5,1032.5C 1023.84,1032.67 1029.18,1032.5 1034.5,1032C 1040.55,1030.26 1046.55,1028.43 1052.5,1026.5 Z"/></g>
<g><path style="opacity:0.812" fill="#0f0a19" d="M 861.5,1014.5 C 888.974,1034.24 918.974,1049.24 951.5,1059.5C 951.5,1059.83 951.5,1060.17 951.5,1060.5C 919.183,1050.84 889.516,1036.17 862.5,1016.5C 862.167,1015.83 861.833,1015.17 861.5,1014.5 Z"/></g>
<g><path style="opacity:1" fill="#84324b" d="M 974.5,1025.5 C 978.5,1025.5 982.5,1025.5 986.5,1025.5C 986.5,1025.83 986.5,1026.17 986.5,1026.5C 983.609,1027.4 980.609,1027.74 977.5,1027.5C 978.376,1030.8 978.543,1034.13 978,1037.5C 974.441,1041.68 970.275,1045.02 965.5,1047.5C 967.279,1045.54 968.946,1043.37 970.5,1041C 975.567,1039.63 977.733,1036.46 977,1031.5C 975.337,1029.84 974.504,1027.84 974.5,1025.5 Z"/></g>
<g><path style="opacity:1" fill="#ad2d47" d="M 986.5,1026.5 C 983.391,1048.91 983.891,1071.24 988,1093.5C 990.272,1105.28 997.106,1111.94 1008.5,1113.5C 1004.06,1113.79 999.73,1113.29 995.5,1112C 981.82,1105.32 970.987,1095.49 963,1082.5C 958.376,1075.59 954.543,1068.25 951.5,1060.5C 951.5,1060.17 951.5,1059.83 951.5,1059.5C 956.643,1056.07 961.309,1052.07 965.5,1047.5C 970.275,1045.02 974.441,1041.68 978,1037.5C 978.543,1034.13 978.376,1030.8 977.5,1027.5C 980.609,1027.74 983.609,1027.4 986.5,1026.5 Z"/></g>
<g><path style="opacity:0.208" fill="#1d1b2f" d="M 405.5,994.5 C 401.659,1019.21 397.492,1043.88 393,1068.5C 392.194,1072.62 390.027,1075.78 386.5,1078C 372.385,1079.13 358.219,1079.63 344,1079.5C 329.781,1079.63 315.615,1079.13 301.5,1078C 298.619,1076.75 296.786,1074.58 296,1071.5C 293.122,1058.28 290.955,1044.94 289.5,1031.5C 289.369,1030.76 289.536,1030.09 290,1029.5C 292.332,1043.16 294.666,1056.83 297,1070.5C 298.25,1073.17 300.083,1075.34 302.5,1077C 329.83,1078.95 357.164,1078.95 384.5,1077C 387.115,1076.39 388.781,1074.89 389.5,1072.5C 391.011,1070.52 391.844,1068.19 392,1065.5C 396.333,1040.84 400.666,1016.17 405,991.5C 405.483,992.448 405.649,993.448 405.5,994.5 Z"/></g>
</svg>
